<?xml version="1.0" encoding="utf-8" standalone="no"?>
<!DOCTYPE svg PUBLIC "-//W3C//DTD SVG 1.1//EN"
  "http://www.w3.org/Graphics/SVG/1.1/DTD/svg11.dtd">
<!-- Created with matplotlib (https://matplotlib.org/) -->
<svg height="516.285312pt" version="1.1" viewBox="0 0 1663.904688 516.285312" width="1663.904688pt" xmlns="http://www.w3.org/2000/svg" xmlns:xlink="http://www.w3.org/1999/xlink">
 <metadata>
  <rdf:RDF xmlns:cc="http://creativecommons.org/ns#" xmlns:dc="http://purl.org/dc/elements/1.1/" xmlns:rdf="http://www.w3.org/1999/02/22-rdf-syntax-ns#">
   <cc:Work>
    <dc:type rdf:resource="http://purl.org/dc/dcmitype/StillImage"/>
    <dc:date>2021-01-14T14:39:36.672135</dc:date>
    <dc:format>image/svg+xml</dc:format>
    <dc:creator>
     <cc:Agent>
      <dc:title>Matplotlib v3.3.2, https://matplotlib.org/</dc:title>
     </cc:Agent>
    </dc:creator>
   </cc:Work>
  </rdf:RDF>
 </metadata>
 <defs>
  <style type="text/css">*{stroke-linecap:butt;stroke-linejoin:round;}</style>
 </defs>
 <g id="figure_1">
  <g id="patch_1">
   <path d="M 0 516.285312 
L 1663.904688 516.285312 
L 1663.904688 0 
L 0 0 
z
" style="fill:#ffffff;"/>
  </g>
  <g id="axes_1">
   <g id="patch_2">
    <path d="M 38.504688 496.44 
L 1656.704688 496.44 
L 1656.704688 7.2 
L 38.504688 7.2 
z
" style="fill:#ffffff;"/>
   </g>
   <g id="matplotlib.axis_1">
    <g id="xtick_1">
     <g id="line2d_1">
      <path clip-path="url(#p9bca34eef6)" d="M 112.059233 496.44 
L 112.059233 7.2 
" style="fill:none;stroke:#cccccc;stroke-linecap:round;stroke-width:0.8;"/>
     </g>
     <g id="line2d_2"/>
     <g id="text_1">
      <!-- 2020-01 -->
      <g style="fill:#262626;" transform="translate(93.711577 507.097812)scale(0.1 -0.1)">
       <defs>
        <path d="M 50.34375 8.453125 
L 50.34375 0 
L 3.03125 0 
Q 2.9375 3.171875 4.046875 6.109375 
Q 5.859375 10.9375 9.828125 15.625 
Q 13.8125 20.3125 21.34375 26.46875 
Q 33.015625 36.03125 37.109375 41.625 
Q 41.21875 47.21875 41.21875 52.203125 
Q 41.21875 57.421875 37.46875 61 
Q 33.734375 64.59375 27.734375 64.59375 
Q 21.390625 64.59375 17.578125 60.78125 
Q 13.765625 56.984375 13.71875 50.25 
L 4.6875 51.171875 
Q 5.609375 61.28125 11.65625 66.578125 
Q 17.71875 71.875 27.9375 71.875 
Q 38.234375 71.875 44.234375 66.15625 
Q 50.25 60.453125 50.25 52 
Q 50.25 47.703125 48.484375 43.546875 
Q 46.734375 39.40625 42.65625 34.8125 
Q 38.578125 30.21875 29.109375 22.21875 
Q 21.1875 15.578125 18.9375 13.203125 
Q 16.703125 10.84375 15.234375 8.453125 
z
" id="ArialMT-50"/>
        <path d="M 4.15625 35.296875 
Q 4.15625 48 6.765625 55.734375 
Q 9.375 63.484375 14.515625 67.671875 
Q 19.671875 71.875 27.484375 71.875 
Q 33.25 71.875 37.59375 69.546875 
Q 41.9375 67.234375 44.765625 62.859375 
Q 47.609375 58.5 49.21875 52.21875 
Q 50.828125 45.953125 50.828125 35.296875 
Q 50.828125 22.703125 48.234375 14.96875 
Q 45.65625 7.234375 40.5 3 
Q 35.359375 -1.21875 27.484375 -1.21875 
Q 17.140625 -1.21875 11.234375 6.203125 
Q 4.15625 15.140625 4.15625 35.296875 
z
M 13.1875 35.296875 
Q 13.1875 17.671875 17.3125 11.828125 
Q 21.4375 6 27.484375 6 
Q 33.546875 6 37.671875 11.859375 
Q 41.796875 17.71875 41.796875 35.296875 
Q 41.796875 52.984375 37.671875 58.78125 
Q 33.546875 64.59375 27.390625 64.59375 
Q 21.34375 64.59375 17.71875 59.46875 
Q 13.1875 52.9375 13.1875 35.296875 
z
" id="ArialMT-48"/>
        <path d="M 3.171875 21.484375 
L 3.171875 30.328125 
L 30.171875 30.328125 
L 30.171875 21.484375 
z
" id="ArialMT-45"/>
        <path d="M 37.25 0 
L 28.46875 0 
L 28.46875 56 
Q 25.296875 52.984375 20.140625 49.953125 
Q 14.984375 46.921875 10.890625 45.40625 
L 10.890625 53.90625 
Q 18.265625 57.375 23.78125 62.296875 
Q 29.296875 67.234375 31.59375 71.875 
L 37.25 71.875 
z
" id="ArialMT-49"/>
       </defs>
       <use xlink:href="#ArialMT-50"/>
       <use x="55.615234" xlink:href="#ArialMT-48"/>
       <use x="111.230469" xlink:href="#ArialMT-50"/>
       <use x="166.845703" xlink:href="#ArialMT-48"/>
       <use x="222.460938" xlink:href="#ArialMT-45"/>
       <use x="255.761719" xlink:href="#ArialMT-48"/>
       <use x="311.376953" xlink:href="#ArialMT-49"/>
      </g>
     </g>
    </g>
    <g id="xtick_2">
     <g id="line2d_3">
      <path clip-path="url(#p9bca34eef6)" d="M 344.949614 496.44 
L 344.949614 7.2 
" style="fill:none;stroke:#cccccc;stroke-linecap:round;stroke-width:0.8;"/>
     </g>
     <g id="line2d_4"/>
     <g id="text_2">
      <!-- 2020-03 -->
      <g style="fill:#262626;" transform="translate(326.601958 507.097812)scale(0.1 -0.1)">
       <defs>
        <path d="M 4.203125 18.890625 
L 12.984375 20.0625 
Q 14.5 12.59375 18.140625 9.296875 
Q 21.78125 6 27 6 
Q 33.203125 6 37.46875 10.296875 
Q 41.75 14.59375 41.75 20.953125 
Q 41.75 27 37.796875 30.921875 
Q 33.84375 34.859375 27.734375 34.859375 
Q 25.25 34.859375 21.53125 33.890625 
L 22.515625 41.609375 
Q 23.390625 41.5 23.921875 41.5 
Q 29.546875 41.5 34.03125 44.421875 
Q 38.53125 47.359375 38.53125 53.46875 
Q 38.53125 58.296875 35.25 61.46875 
Q 31.984375 64.65625 26.8125 64.65625 
Q 21.6875 64.65625 18.265625 61.421875 
Q 14.84375 58.203125 13.875 51.765625 
L 5.078125 53.328125 
Q 6.6875 62.15625 12.390625 67.015625 
Q 18.109375 71.875 26.609375 71.875 
Q 32.46875 71.875 37.390625 69.359375 
Q 42.328125 66.84375 44.9375 62.5 
Q 47.5625 58.15625 47.5625 53.265625 
Q 47.5625 48.640625 45.0625 44.828125 
Q 42.578125 41.015625 37.703125 38.765625 
Q 44.046875 37.3125 47.5625 32.6875 
Q 51.078125 28.078125 51.078125 21.140625 
Q 51.078125 11.765625 44.234375 5.25 
Q 37.40625 -1.265625 26.953125 -1.265625 
Q 17.53125 -1.265625 11.296875 4.34375 
Q 5.078125 9.96875 4.203125 18.890625 
z
" id="ArialMT-51"/>
       </defs>
       <use xlink:href="#ArialMT-50"/>
       <use x="55.615234" xlink:href="#ArialMT-48"/>
       <use x="111.230469" xlink:href="#ArialMT-50"/>
       <use x="166.845703" xlink:href="#ArialMT-48"/>
       <use x="222.460938" xlink:href="#ArialMT-45"/>
       <use x="255.761719" xlink:href="#ArialMT-48"/>
       <use x="311.376953" xlink:href="#ArialMT-51"/>
      </g>
     </g>
    </g>
    <g id="xtick_3">
     <g id="line2d_5">
      <path clip-path="url(#p9bca34eef6)" d="M 581.721502 496.44 
L 581.721502 7.2 
" style="fill:none;stroke:#cccccc;stroke-linecap:round;stroke-width:0.8;"/>
     </g>
     <g id="line2d_6"/>
     <g id="text_3">
      <!-- 2020-05 -->
      <g style="fill:#262626;" transform="translate(563.373846 507.097812)scale(0.1 -0.1)">
       <defs>
        <path d="M 4.15625 18.75 
L 13.375 19.53125 
Q 14.40625 12.796875 18.140625 9.390625 
Q 21.875 6 27.15625 6 
Q 33.5 6 37.890625 10.78125 
Q 42.28125 15.578125 42.28125 23.484375 
Q 42.28125 31 38.0625 35.34375 
Q 33.84375 39.703125 27 39.703125 
Q 22.75 39.703125 19.328125 37.765625 
Q 15.921875 35.84375 13.96875 32.765625 
L 5.71875 33.84375 
L 12.640625 70.609375 
L 48.25 70.609375 
L 48.25 62.203125 
L 19.671875 62.203125 
L 15.828125 42.96875 
Q 22.265625 47.46875 29.34375 47.46875 
Q 38.71875 47.46875 45.15625 40.96875 
Q 51.609375 34.46875 51.609375 24.265625 
Q 51.609375 14.546875 45.953125 7.46875 
Q 39.0625 -1.21875 27.15625 -1.21875 
Q 17.390625 -1.21875 11.203125 4.25 
Q 5.03125 9.71875 4.15625 18.75 
z
" id="ArialMT-53"/>
       </defs>
       <use xlink:href="#ArialMT-50"/>
       <use x="55.615234" xlink:href="#ArialMT-48"/>
       <use x="111.230469" xlink:href="#ArialMT-50"/>
       <use x="166.845703" xlink:href="#ArialMT-48"/>
       <use x="222.460938" xlink:href="#ArialMT-45"/>
       <use x="255.761719" xlink:href="#ArialMT-48"/>
       <use x="311.376953" xlink:href="#ArialMT-53"/>
      </g>
     </g>
    </g>
    <g id="xtick_4">
     <g id="line2d_7">
      <path clip-path="url(#p9bca34eef6)" d="M 818.49339 496.44 
L 818.49339 7.2 
" style="fill:none;stroke:#cccccc;stroke-linecap:round;stroke-width:0.8;"/>
     </g>
     <g id="line2d_8"/>
     <g id="text_4">
      <!-- 2020-07 -->
      <g style="fill:#262626;" transform="translate(800.145734 507.097812)scale(0.1 -0.1)">
       <defs>
        <path d="M 4.734375 62.203125 
L 4.734375 70.65625 
L 51.078125 70.65625 
L 51.078125 63.8125 
Q 44.234375 56.546875 37.515625 44.484375 
Q 30.8125 32.421875 27.15625 19.671875 
Q 24.515625 10.6875 23.78125 0 
L 14.75 0 
Q 14.890625 8.453125 18.0625 20.40625 
Q 21.234375 32.375 27.171875 43.484375 
Q 33.109375 54.59375 39.796875 62.203125 
z
" id="ArialMT-55"/>
       </defs>
       <use xlink:href="#ArialMT-50"/>
       <use x="55.615234" xlink:href="#ArialMT-48"/>
       <use x="111.230469" xlink:href="#ArialMT-50"/>
       <use x="166.845703" xlink:href="#ArialMT-48"/>
       <use x="222.460938" xlink:href="#ArialMT-45"/>
       <use x="255.761719" xlink:href="#ArialMT-48"/>
       <use x="311.376953" xlink:href="#ArialMT-55"/>
      </g>
     </g>
    </g>
    <g id="xtick_5">
     <g id="line2d_9">
      <path clip-path="url(#p9bca34eef6)" d="M 1059.146784 496.44 
L 1059.146784 7.2 
" style="fill:none;stroke:#cccccc;stroke-linecap:round;stroke-width:0.8;"/>
     </g>
     <g id="line2d_10"/>
     <g id="text_5">
      <!-- 2020-09 -->
      <g style="fill:#262626;" transform="translate(1040.799128 507.097812)scale(0.1 -0.1)">
       <defs>
        <path d="M 5.46875 16.546875 
L 13.921875 17.328125 
Q 14.984375 11.375 18.015625 8.6875 
Q 21.046875 6 25.78125 6 
Q 29.828125 6 32.875 7.859375 
Q 35.9375 9.71875 37.890625 12.8125 
Q 39.84375 15.921875 41.15625 21.1875 
Q 42.484375 26.46875 42.484375 31.9375 
Q 42.484375 32.515625 42.4375 33.6875 
Q 39.796875 29.5 35.234375 26.875 
Q 30.671875 24.265625 25.34375 24.265625 
Q 16.453125 24.265625 10.296875 30.703125 
Q 4.15625 37.15625 4.15625 47.703125 
Q 4.15625 58.59375 10.578125 65.234375 
Q 17 71.875 26.65625 71.875 
Q 33.640625 71.875 39.421875 68.109375 
Q 45.21875 64.359375 48.21875 57.390625 
Q 51.21875 50.4375 51.21875 37.25 
Q 51.21875 23.53125 48.234375 15.40625 
Q 45.265625 7.28125 39.375 3.03125 
Q 33.5 -1.21875 25.59375 -1.21875 
Q 17.1875 -1.21875 11.859375 3.4375 
Q 6.546875 8.109375 5.46875 16.546875 
z
M 41.453125 48.140625 
Q 41.453125 55.71875 37.421875 60.15625 
Q 33.40625 64.59375 27.734375 64.59375 
Q 21.875 64.59375 17.53125 59.8125 
Q 13.1875 55.03125 13.1875 47.40625 
Q 13.1875 40.578125 17.3125 36.296875 
Q 21.4375 32.03125 27.484375 32.03125 
Q 33.59375 32.03125 37.515625 36.296875 
Q 41.453125 40.578125 41.453125 48.140625 
z
" id="ArialMT-57"/>
       </defs>
       <use xlink:href="#ArialMT-50"/>
       <use x="55.615234" xlink:href="#ArialMT-48"/>
       <use x="111.230469" xlink:href="#ArialMT-50"/>
       <use x="166.845703" xlink:href="#ArialMT-48"/>
       <use x="222.460938" xlink:href="#ArialMT-45"/>
       <use x="255.761719" xlink:href="#ArialMT-48"/>
       <use x="311.376953" xlink:href="#ArialMT-57"/>
      </g>
     </g>
    </g>
    <g id="xtick_6">
     <g id="line2d_11">
      <path clip-path="url(#p9bca34eef6)" d="M 1295.918672 496.44 
L 1295.918672 7.2 
" style="fill:none;stroke:#cccccc;stroke-linecap:round;stroke-width:0.8;"/>
     </g>
     <g id="line2d_12"/>
     <g id="text_6">
      <!-- 2020-11 -->
      <g style="fill:#262626;" transform="translate(1277.939765 507.097812)scale(0.1 -0.1)">
       <use xlink:href="#ArialMT-50"/>
       <use x="55.615234" xlink:href="#ArialMT-48"/>
       <use x="111.230469" xlink:href="#ArialMT-50"/>
       <use x="166.845703" xlink:href="#ArialMT-48"/>
       <use x="222.460938" xlink:href="#ArialMT-45"/>
       <use x="255.761719" xlink:href="#ArialMT-49"/>
       <use x="304.001953" xlink:href="#ArialMT-49"/>
      </g>
     </g>
    </g>
    <g id="xtick_7">
     <g id="line2d_13">
      <path clip-path="url(#p9bca34eef6)" d="M 1532.690559 496.44 
L 1532.690559 7.2 
" style="fill:none;stroke:#cccccc;stroke-linecap:round;stroke-width:0.8;"/>
     </g>
     <g id="line2d_14"/>
     <g id="text_7">
      <!-- 2021-01 -->
      <g style="fill:#262626;" transform="translate(1514.342903 507.097812)scale(0.1 -0.1)">
       <use xlink:href="#ArialMT-50"/>
       <use x="55.615234" xlink:href="#ArialMT-48"/>
       <use x="111.230469" xlink:href="#ArialMT-50"/>
       <use x="166.845703" xlink:href="#ArialMT-49"/>
       <use x="222.460938" xlink:href="#ArialMT-45"/>
       <use x="255.761719" xlink:href="#ArialMT-48"/>
       <use x="311.376953" xlink:href="#ArialMT-49"/>
      </g>
     </g>
    </g>
   </g>
   <g id="matplotlib.axis_2">
    <g id="ytick_1">
     <g id="line2d_15">
      <path clip-path="url(#p9bca34eef6)" d="M 38.504688 474.201818 
L 1656.704688 474.201818 
" style="fill:none;stroke:#cccccc;stroke-linecap:round;stroke-width:0.8;"/>
     </g>
     <g id="line2d_16"/>
     <g id="text_8">
      <!-- 0 -->
      <g style="fill:#262626;" transform="translate(29.44375 477.780724)scale(0.1 -0.1)">
       <use xlink:href="#ArialMT-48"/>
      </g>
     </g>
    </g>
    <g id="ytick_2">
     <g id="line2d_17">
      <path clip-path="url(#p9bca34eef6)" d="M 38.504688 406.305192 
L 1656.704688 406.305192 
" style="fill:none;stroke:#cccccc;stroke-linecap:round;stroke-width:0.8;"/>
     </g>
     <g id="line2d_18"/>
     <g id="text_9">
      <!-- 10000 -->
      <g style="fill:#262626;" transform="translate(7.2 409.884099)scale(0.1 -0.1)">
       <use xlink:href="#ArialMT-49"/>
       <use x="55.615234" xlink:href="#ArialMT-48"/>
       <use x="111.230469" xlink:href="#ArialMT-48"/>
       <use x="166.845703" xlink:href="#ArialMT-48"/>
       <use x="222.460938" xlink:href="#ArialMT-48"/>
      </g>
     </g>
    </g>
    <g id="ytick_3">
     <g id="line2d_19">
      <path clip-path="url(#p9bca34eef6)" d="M 38.504688 338.408567 
L 1656.704688 338.408567 
" style="fill:none;stroke:#cccccc;stroke-linecap:round;stroke-width:0.8;"/>
     </g>
     <g id="line2d_20"/>
     <g id="text_10">
      <!-- 20000 -->
      <g style="fill:#262626;" transform="translate(7.2 341.987473)scale(0.1 -0.1)">
       <use xlink:href="#ArialMT-50"/>
       <use x="55.615234" xlink:href="#ArialMT-48"/>
       <use x="111.230469" xlink:href="#ArialMT-48"/>
       <use x="166.845703" xlink:href="#ArialMT-48"/>
       <use x="222.460938" xlink:href="#ArialMT-48"/>
      </g>
     </g>
    </g>
    <g id="ytick_4">
     <g id="line2d_21">
      <path clip-path="url(#p9bca34eef6)" d="M 38.504688 270.511941 
L 1656.704688 270.511941 
" style="fill:none;stroke:#cccccc;stroke-linecap:round;stroke-width:0.8;"/>
     </g>
     <g id="line2d_22"/>
     <g id="text_11">
      <!-- 30000 -->
      <g style="fill:#262626;" transform="translate(7.2 274.090847)scale(0.1 -0.1)">
       <use xlink:href="#ArialMT-51"/>
       <use x="55.615234" xlink:href="#ArialMT-48"/>
       <use x="111.230469" xlink:href="#ArialMT-48"/>
       <use x="166.845703" xlink:href="#ArialMT-48"/>
       <use x="222.460938" xlink:href="#ArialMT-48"/>
      </g>
     </g>
    </g>
    <g id="ytick_5">
     <g id="line2d_23">
      <path clip-path="url(#p9bca34eef6)" d="M 38.504688 202.615315 
L 1656.704688 202.615315 
" style="fill:none;stroke:#cccccc;stroke-linecap:round;stroke-width:0.8;"/>
     </g>
     <g id="line2d_24"/>
     <g id="text_12">
      <!-- 40000 -->
      <g style="fill:#262626;" transform="translate(7.2 206.194222)scale(0.1 -0.1)">
       <defs>
        <path d="M 32.328125 0 
L 32.328125 17.140625 
L 1.265625 17.140625 
L 1.265625 25.203125 
L 33.9375 71.578125 
L 41.109375 71.578125 
L 41.109375 25.203125 
L 50.78125 25.203125 
L 50.78125 17.140625 
L 41.109375 17.140625 
L 41.109375 0 
z
M 32.328125 25.203125 
L 32.328125 57.46875 
L 9.90625 25.203125 
z
" id="ArialMT-52"/>
       </defs>
       <use xlink:href="#ArialMT-52"/>
       <use x="55.615234" xlink:href="#ArialMT-48"/>
       <use x="111.230469" xlink:href="#ArialMT-48"/>
       <use x="166.845703" xlink:href="#ArialMT-48"/>
       <use x="222.460938" xlink:href="#ArialMT-48"/>
      </g>
     </g>
    </g>
    <g id="ytick_6">
     <g id="line2d_25">
      <path clip-path="url(#p9bca34eef6)" d="M 38.504688 134.71869 
L 1656.704688 134.71869 
" style="fill:none;stroke:#cccccc;stroke-linecap:round;stroke-width:0.8;"/>
     </g>
     <g id="line2d_26"/>
     <g id="text_13">
      <!-- 50000 -->
      <g style="fill:#262626;" transform="translate(7.2 138.297596)scale(0.1 -0.1)">
       <use xlink:href="#ArialMT-53"/>
       <use x="55.615234" xlink:href="#ArialMT-48"/>
       <use x="111.230469" xlink:href="#ArialMT-48"/>
       <use x="166.845703" xlink:href="#ArialMT-48"/>
       <use x="222.460938" xlink:href="#ArialMT-48"/>
      </g>
     </g>
    </g>
    <g id="ytick_7">
     <g id="line2d_27">
      <path clip-path="url(#p9bca34eef6)" d="M 38.504688 66.822064 
L 1656.704688 66.822064 
" style="fill:none;stroke:#cccccc;stroke-linecap:round;stroke-width:0.8;"/>
     </g>
     <g id="line2d_28"/>
     <g id="text_14">
      <!-- 60000 -->
      <g style="fill:#262626;" transform="translate(7.2 70.40097)scale(0.1 -0.1)">
       <defs>
        <path d="M 49.75 54.046875 
L 41.015625 53.375 
Q 39.84375 58.546875 37.703125 60.890625 
Q 34.125 64.65625 28.90625 64.65625 
Q 24.703125 64.65625 21.53125 62.3125 
Q 17.390625 59.28125 14.984375 53.46875 
Q 12.59375 47.65625 12.5 36.921875 
Q 15.671875 41.75 20.265625 44.09375 
Q 24.859375 46.4375 29.890625 46.4375 
Q 38.671875 46.4375 44.84375 39.96875 
Q 51.03125 33.5 51.03125 23.25 
Q 51.03125 16.5 48.125 10.71875 
Q 45.21875 4.9375 40.140625 1.859375 
Q 35.0625 -1.21875 28.609375 -1.21875 
Q 17.625 -1.21875 10.6875 6.859375 
Q 3.765625 14.9375 3.765625 33.5 
Q 3.765625 54.25 11.421875 63.671875 
Q 18.109375 71.875 29.4375 71.875 
Q 37.890625 71.875 43.28125 67.140625 
Q 48.6875 62.40625 49.75 54.046875 
z
M 13.875 23.1875 
Q 13.875 18.65625 15.796875 14.5 
Q 17.71875 10.359375 21.1875 8.171875 
Q 24.65625 6 28.46875 6 
Q 34.03125 6 38.03125 10.484375 
Q 42.046875 14.984375 42.046875 22.703125 
Q 42.046875 30.125 38.078125 34.390625 
Q 34.125 38.671875 28.125 38.671875 
Q 22.171875 38.671875 18.015625 34.390625 
Q 13.875 30.125 13.875 23.1875 
z
" id="ArialMT-54"/>
       </defs>
       <use xlink:href="#ArialMT-54"/>
       <use x="55.615234" xlink:href="#ArialMT-48"/>
       <use x="111.230469" xlink:href="#ArialMT-48"/>
       <use x="166.845703" xlink:href="#ArialMT-48"/>
       <use x="222.460938" xlink:href="#ArialMT-48"/>
      </g>
     </g>
    </g>
   </g>
   <g id="line2d_29">
    <path clip-path="url(#p9bca34eef6)" d="M 112.059233 474.201818 
L 344.949614 474.201818 
L 352.712627 363.801905 
L 356.594133 400.493241 
L 360.47564 407.432276 
L 364.357146 350.636749 
L 368.238652 382.887646 
L 372.120159 404.071393 
L 376.001665 419.205551 
L 379.883172 382.364842 
L 383.764678 391.021662 
L 387.646184 388.631701 
L 391.527691 381.529714 
L 395.409197 388.054579 
L 399.290703 427.509309 
L 403.17221 431.481261 
L 407.053716 391.286459 
L 410.935222 413.563342 
L 414.816729 396.955827 
L 418.698235 408.749471 
L 422.579741 400.567928 
L 426.461248 445.203169 
L 430.342754 431.725689 
L 434.224261 402.598037 
L 438.105767 410.962901 
L 441.987273 426.361856 
L 445.86878 392.596864 
L 449.750286 399.759958 
L 453.631792 431.997276 
L 457.513299 467.052303 
L 461.394805 369.844704 
L 465.276311 399.630954 
L 469.157818 404.974419 
L 473.039324 395.917009 
L 476.92083 394.362176 
L 480.802337 432.099121 
L 484.683843 436.376608 
L 488.56535 402.910361 
L 492.446856 415.138543 
L 496.328362 415.077437 
L 500.209869 417.576032 
L 504.091375 423.768205 
L 507.972881 446.079036 
L 511.854388 446.214829 
L 515.735894 415.165702 
L 519.6174 425.900159 
L 523.498907 445.529073 
L 527.380413 422.002892 
L 531.261919 417.365553 
L 535.143426 445.176011 
L 539.024932 447.545603 
L 542.906439 420.027101 
L 546.787945 427.047612 
L 550.669451 433.382367 
L 554.550958 436.525981 
L 558.432464 421.758464 
L 562.31397 467.133779 
L 566.195477 451.286707 
L 570.076983 427.665471 
L 573.958489 435.616166 
L 577.839996 435.609376 
L 581.721502 452.556374 
L 585.603008 443.695864 
L 589.484515 451.042279 
L 593.366021 454.185893 
L 597.247528 431.318309 
L 601.129034 454.796963 
L 605.01054 431.474472 
L 608.892047 437.028416 
L 612.773553 439.119632 
L 616.655059 448.020879 
L 620.536566 442.928632 
L 624.418072 390.023582 
L 628.299578 372.15319 
L 632.181085 368.52751 
L 636.062591 370.571198 
L 639.944097 379.839088 
L 643.825604 426.619863 
L 647.70711 436.464874 
L 651.588616 390.26122 
L 655.470123 400.472872 
L 659.351629 391.021662 
L 663.233136 380.952592 
L 667.114642 392.712288 
L 670.996148 434.353289 
L 674.877655 432.458973 
L 678.759161 385.678198 
L 682.640667 383.21355 
L 686.522174 366.993046 
L 690.40368 362.48471 
L 694.285186 353.474828 
L 698.166693 420.420901 
L 702.048199 402.441874 
L 705.929705 348.864647 
L 709.811212 358.770765 
L 713.692718 358.736817 
L 717.574225 358.085009 
L 721.455731 376.804109 
L 725.337237 423.523777 
L 729.218744 437.238895 
L 733.10025 353.461249 
L 736.981756 365.736959 
L 740.863263 372.927211 
L 744.744769 375.079534 
L 748.626275 384.462848 
L 752.507782 436.016756 
L 756.389288 437.591958 
L 760.270794 378.820638 
L 764.152301 385.555984 
L 768.033807 386.689857 
L 771.915314 390.342696 
L 775.79682 387.03613 
L 779.678326 436.437715 
L 783.559833 436.159339 
L 787.441339 379.513184 
L 791.322845 388.753915 
L 795.204352 393.533837 
L 799.085858 393.832582 
L 802.967364 396.358337 
L 806.848871 420.461639 
L 810.730377 418.125995 
L 814.611883 380.429788 
L 818.49339 396.351547 
L 822.374896 401.341949 
L 826.256403 394.09059 
L 830.137909 394.355386 
L 834.019415 429.838163 
L 837.900922 435.222365 
L 841.782428 376.444256 
L 845.663934 382.269787 
L 849.545441 392.47465 
L 853.426947 385.128235 
L 857.308453 392.379595 
L 861.18996 438.875204 
L 865.071466 432.323179 
L 868.952972 390.66181 
L 872.834479 401.552429 
L 876.715985 406.087923 
L 880.597492 408.552571 
L 884.478998 411.825188 
L 888.360504 439.608487 
L 892.242011 440.97321 
L 896.123517 391.388304 
L 900.005023 408.471095 
L 903.88653 414.568212 
L 907.768036 409.883345 
L 911.649542 417.800091 
L 915.531049 445.060586 
L 919.412555 446.717264 
L 923.294061 401.348739 
L 927.175568 409.000689 
L 931.057074 413.719504 
L 934.938581 422.729386 
L 938.820087 419.653669 
L 942.701593 444.218668 
L 946.5831 450.363313 
L 950.464606 406.14903 
L 954.346112 417.121125 
L 958.227619 417.847619 
L 962.109125 425.553886 
L 965.990631 427.611154 
L 969.872138 446.119774 
L 973.753644 449.399181 
L 977.63515 409.421648 
L 981.516657 414.39847 
L 985.398163 418.214261 
L 989.27967 405.042315 
L 993.161176 404.865784 
L 997.042682 430.130118 
L 1000.924189 428.826503 
L 1004.805695 416.000831 
L 1008.687201 351.838519 
L 1016.450214 338.13698 
L 1020.33172 327.022303 
L 1024.213227 369.73607 
L 1028.094733 384.333844 
L 1031.976239 328.801194 
L 1035.857746 313.497295 
L 1039.739252 337.912921 
L 1043.620759 351.050918 
L 1047.502265 327.463631 
L 1051.383771 373.436436 
L 1055.265278 382.41237 
L 1059.146784 328.964146 
L 1063.02829 330.159127 
L 1066.909797 336.663623 
L 1070.791303 349.584351 
L 1074.672809 351.044129 
L 1078.554316 413.841718 
L 1082.435822 437.795647 
L 1086.317328 373.843816 
L 1090.198835 364.50803 
L 1094.080341 356.353645 
L 1097.961847 340.988639 
L 1101.843354 363.89696 
L 1105.72486 421.154185 
L 1109.606367 421.704147 
L 1113.487873 382.025359 
L 1117.369379 377.421968 
L 1121.250886 385.528825 
L 1125.132392 375.935032 
L 1129.013898 387.314506 
L 1132.895405 423.014552 
L 1136.776911 441.013948 
L 1140.658417 382.385211 
L 1144.539924 394.172065 
L 1148.42143 392.046901 
L 1152.302936 397.634793 
L 1156.184443 405.836706 
L 1160.065949 432.296021 
L 1163.947456 441.706493 
L 1167.828962 394.48439 
L 1171.710468 406.610727 
L 1175.591975 437.293212 
L 1179.473481 437.931441 
L 1183.354987 432.90709 
L 1187.236494 430.164067 
L 1191.118 433.239784 
L 1194.999506 385.562773 
L 1198.881013 388.380483 
L 1202.762519 401.070363 
L 1206.644025 396.874351 
L 1210.525532 443.98103 
L 1214.407038 434.828565 
L 1218.288545 439.391218 
L 1222.170051 384.843069 
L 1226.051557 388.088528 
L 1229.933064 411.159801 
L 1233.81457 415.220019 
L 1237.696076 412.409099 
L 1241.577583 433.450263 
L 1245.459089 442.310773 
L 1249.340595 392.148746 
L 1253.222102 391.503728 
L 1257.103608 393.852951 
L 1260.985114 383.926465 
L 1264.866621 392.332067 
L 1268.748127 437.082733 
L 1272.629634 432.662663 
L 1276.51114 370.163819 
L 1280.392646 369.824335 
L 1284.274153 372.234666 
L 1288.155659 377.428758 
L 1292.037165 390.953765 
L 1295.918672 432.526869 
L 1299.800178 433.32805 
L 1303.681684 384.517165 
L 1307.563191 390.003213 
L 1311.444697 396.48734 
L 1315.326203 388.597752 
L 1319.20771 399.956858 
L 1323.089216 435.969228 
L 1326.970723 431.29794 
L 1330.852229 373.979609 
L 1334.733735 388.828601 
L 1338.615242 384.320265 
L 1342.496748 395.176936 
L 1346.378254 366.395556 
L 1350.259761 409.095744 
L 1354.141267 400.785197 
L 1358.022773 351.553354 
L 1361.90428 347.866567 
L 1365.785786 341.932402 
L 1369.667292 341.124432 
L 1373.548799 315.982311 
L 1377.430305 391.748156 
L 1381.311812 384.272737 
L 1385.193318 309.457446 
L 1389.074824 338.367829 
L 1392.956331 327.26673 
L 1396.837837 328.013593 
L 1400.719343 321.930056 
L 1404.60085 372.580938 
L 1408.482356 377.78182 
L 1412.363862 319.22777 
L 1416.245369 318.2229 
L 1420.126875 305.030586 
L 1424.008381 300.902471 
L 1427.889888 317.455668 
L 1431.771394 376.627577 
L 1435.652901 375.690604 
L 1439.534407 393.126457 
L 1443.415913 257.482579 
L 1447.29742 306.422466 
L 1451.178926 248.336903 
L 1455.060432 211.77457 
L 1458.941939 306.286673 
L 1462.823445 321.814631 
L 1466.704951 174.227736 
L 1470.586458 151.360153 
L 1474.467964 134.236624 
L 1478.34947 128.234562 
L 1482.230977 90.911787 
L 1486.112483 224.05028 
L 1489.993989 265.30427 
L 1493.875496 76.538071 
L 1497.757002 106.609487 
L 1505.520015 86.172602 
L 1509.401521 270.118141 
L 1513.283028 223.004672 
L 1517.164534 257.64553 
L 1521.04604 67.691141 
L 1524.927547 57.703547 
L 1528.809053 105.12934 
L 1532.690559 97.803294 
L 1536.572066 246.904284 
L 1540.453572 215.889106 
L 1544.335078 231.335588 
L 1548.216585 48.136913 
L 1552.098091 29.438182 
L 1555.979598 33.267552 
L 1559.861104 65.49129 
L 1563.74261 69.456453 
L 1567.624117 244.392109 
L 1571.505623 282.583961 
L 1575.387129 50.526874 
L 1579.268636 78.860136 
L 1583.150142 114.030588 
L 1583.150142 114.030588 
" style="fill:none;stroke:#1f77b4;stroke-linecap:round;stroke-width:1.5;"/>
   </g>
   <g id="patch_3">
    <path d="M 38.504688 496.44 
L 38.504688 7.2 
" style="fill:none;stroke:#cccccc;stroke-linecap:square;stroke-linejoin:miter;"/>
   </g>
   <g id="patch_4">
    <path d="M 1656.704688 496.44 
L 1656.704688 7.2 
" style="fill:none;stroke:#cccccc;stroke-linecap:square;stroke-linejoin:miter;"/>
   </g>
   <g id="patch_5">
    <path d="M 38.504687 496.44 
L 1656.704687 496.44 
" style="fill:none;stroke:#cccccc;stroke-linecap:square;stroke-linejoin:miter;"/>
   </g>
   <g id="patch_6">
    <path d="M 38.504687 7.2 
L 1656.704687 7.2 
" style="fill:none;stroke:#cccccc;stroke-linecap:square;stroke-linejoin:miter;"/>
   </g>
  </g>
 </g>
 <defs>
  <clipPath id="p9bca34eef6">
   <rect height="489.24" width="1618.2" x="38.504688" y="7.2"/>
  </clipPath>
 </defs>
</svg>
