<?xml version="1.0" encoding="utf-8" standalone="no"?>
<!DOCTYPE svg PUBLIC "-//W3C//DTD SVG 1.1//EN"
  "http://www.w3.org/Graphics/SVG/1.1/DTD/svg11.dtd">
<!-- Created with matplotlib (https://matplotlib.org/) -->
<svg height="549.74625pt" version="1.1" viewBox="0 0 728.45 549.74625" width="728.45pt" xmlns="http://www.w3.org/2000/svg" xmlns:xlink="http://www.w3.org/1999/xlink">
 <metadata>
  <rdf:RDF xmlns:cc="http://creativecommons.org/ns#" xmlns:dc="http://purl.org/dc/elements/1.1/" xmlns:rdf="http://www.w3.org/1999/02/22-rdf-syntax-ns#">
   <cc:Work>
    <dc:type rdf:resource="http://purl.org/dc/dcmitype/StillImage"/>
    <dc:date>2020-12-17T11:44:17.638726</dc:date>
    <dc:format>image/svg+xml</dc:format>
    <dc:creator>
     <cc:Agent>
      <dc:title>Matplotlib v3.3.2, https://matplotlib.org/</dc:title>
     </cc:Agent>
    </dc:creator>
   </cc:Work>
  </rdf:RDF>
 </metadata>
 <defs>
  <style type="text/css">*{stroke-linecap:butt;stroke-linejoin:round;}</style>
 </defs>
 <g id="figure_1">
  <g id="patch_1">
   <path d="M 0 549.74625 
L 728.45 549.74625 
L 728.45 0 
L 0 0 
z
" style="fill:#ffffff;"/>
  </g>
  <g id="axes_1">
   <g id="patch_2">
    <path d="M 51.65 516.755625 
L 721.25 516.755625 
L 721.25 27.515625 
L 51.65 27.515625 
z
" style="fill:#ffffff;"/>
   </g>
   <g id="matplotlib.axis_1">
    <g id="xtick_1">
     <g id="line2d_1">
      <path clip-path="url(#pf5f7bd512a)" d="M 81.477027 516.755625 
L 81.477027 27.515625 
" style="fill:none;stroke:#cccccc;stroke-linecap:round;stroke-width:0.8;"/>
     </g>
     <g id="line2d_2"/>
     <g id="text_1">
      <!-- 0 -->
      <g style="fill:#262626;" transform="translate(78.696558 527.413437)scale(0.1 -0.1)">
       <defs>
        <path d="M 4.15625 35.296875 
Q 4.15625 48 6.765625 55.734375 
Q 9.375 63.484375 14.515625 67.671875 
Q 19.671875 71.875 27.484375 71.875 
Q 33.25 71.875 37.59375 69.546875 
Q 41.9375 67.234375 44.765625 62.859375 
Q 47.609375 58.5 49.21875 52.21875 
Q 50.828125 45.953125 50.828125 35.296875 
Q 50.828125 22.703125 48.234375 14.96875 
Q 45.65625 7.234375 40.5 3 
Q 35.359375 -1.21875 27.484375 -1.21875 
Q 17.140625 -1.21875 11.234375 6.203125 
Q 4.15625 15.140625 4.15625 35.296875 
z
M 13.1875 35.296875 
Q 13.1875 17.671875 17.3125 11.828125 
Q 21.4375 6 27.484375 6 
Q 33.546875 6 37.671875 11.859375 
Q 41.796875 17.71875 41.796875 35.296875 
Q 41.796875 52.984375 37.671875 58.78125 
Q 33.546875 64.59375 27.390625 64.59375 
Q 21.34375 64.59375 17.71875 59.46875 
Q 13.1875 52.9375 13.1875 35.296875 
z
" id="ArialMT-48"/>
       </defs>
       <use xlink:href="#ArialMT-48"/>
      </g>
     </g>
    </g>
    <g id="xtick_2">
     <g id="line2d_3">
      <path clip-path="url(#pf5f7bd512a)" d="M 203.344349 516.755625 
L 203.344349 27.515625 
" style="fill:none;stroke:#cccccc;stroke-linecap:round;stroke-width:0.8;"/>
     </g>
     <g id="line2d_4"/>
     <g id="text_2">
      <!-- 200 -->
      <g style="fill:#262626;" transform="translate(195.002943 527.413437)scale(0.1 -0.1)">
       <defs>
        <path d="M 50.34375 8.453125 
L 50.34375 0 
L 3.03125 0 
Q 2.9375 3.171875 4.046875 6.109375 
Q 5.859375 10.9375 9.828125 15.625 
Q 13.8125 20.3125 21.34375 26.46875 
Q 33.015625 36.03125 37.109375 41.625 
Q 41.21875 47.21875 41.21875 52.203125 
Q 41.21875 57.421875 37.46875 61 
Q 33.734375 64.59375 27.734375 64.59375 
Q 21.390625 64.59375 17.578125 60.78125 
Q 13.765625 56.984375 13.71875 50.25 
L 4.6875 51.171875 
Q 5.609375 61.28125 11.65625 66.578125 
Q 17.71875 71.875 27.9375 71.875 
Q 38.234375 71.875 44.234375 66.15625 
Q 50.25 60.453125 50.25 52 
Q 50.25 47.703125 48.484375 43.546875 
Q 46.734375 39.40625 42.65625 34.8125 
Q 38.578125 30.21875 29.109375 22.21875 
Q 21.1875 15.578125 18.9375 13.203125 
Q 16.703125 10.84375 15.234375 8.453125 
z
" id="ArialMT-50"/>
       </defs>
       <use xlink:href="#ArialMT-50"/>
       <use x="55.615234" xlink:href="#ArialMT-48"/>
       <use x="111.230469" xlink:href="#ArialMT-48"/>
      </g>
     </g>
    </g>
    <g id="xtick_3">
     <g id="line2d_5">
      <path clip-path="url(#pf5f7bd512a)" d="M 325.211671 516.755625 
L 325.211671 27.515625 
" style="fill:none;stroke:#cccccc;stroke-linecap:round;stroke-width:0.8;"/>
     </g>
     <g id="line2d_6"/>
     <g id="text_3">
      <!-- 400 -->
      <g style="fill:#262626;" transform="translate(316.870265 527.413437)scale(0.1 -0.1)">
       <defs>
        <path d="M 32.328125 0 
L 32.328125 17.140625 
L 1.265625 17.140625 
L 1.265625 25.203125 
L 33.9375 71.578125 
L 41.109375 71.578125 
L 41.109375 25.203125 
L 50.78125 25.203125 
L 50.78125 17.140625 
L 41.109375 17.140625 
L 41.109375 0 
z
M 32.328125 25.203125 
L 32.328125 57.46875 
L 9.90625 25.203125 
z
" id="ArialMT-52"/>
       </defs>
       <use xlink:href="#ArialMT-52"/>
       <use x="55.615234" xlink:href="#ArialMT-48"/>
       <use x="111.230469" xlink:href="#ArialMT-48"/>
      </g>
     </g>
    </g>
    <g id="xtick_4">
     <g id="line2d_7">
      <path clip-path="url(#pf5f7bd512a)" d="M 447.078993 516.755625 
L 447.078993 27.515625 
" style="fill:none;stroke:#cccccc;stroke-linecap:round;stroke-width:0.8;"/>
     </g>
     <g id="line2d_8"/>
     <g id="text_4">
      <!-- 600 -->
      <g style="fill:#262626;" transform="translate(438.737586 527.413437)scale(0.1 -0.1)">
       <defs>
        <path d="M 49.75 54.046875 
L 41.015625 53.375 
Q 39.84375 58.546875 37.703125 60.890625 
Q 34.125 64.65625 28.90625 64.65625 
Q 24.703125 64.65625 21.53125 62.3125 
Q 17.390625 59.28125 14.984375 53.46875 
Q 12.59375 47.65625 12.5 36.921875 
Q 15.671875 41.75 20.265625 44.09375 
Q 24.859375 46.4375 29.890625 46.4375 
Q 38.671875 46.4375 44.84375 39.96875 
Q 51.03125 33.5 51.03125 23.25 
Q 51.03125 16.5 48.125 10.71875 
Q 45.21875 4.9375 40.140625 1.859375 
Q 35.0625 -1.21875 28.609375 -1.21875 
Q 17.625 -1.21875 10.6875 6.859375 
Q 3.765625 14.9375 3.765625 33.5 
Q 3.765625 54.25 11.421875 63.671875 
Q 18.109375 71.875 29.4375 71.875 
Q 37.890625 71.875 43.28125 67.140625 
Q 48.6875 62.40625 49.75 54.046875 
z
M 13.875 23.1875 
Q 13.875 18.65625 15.796875 14.5 
Q 17.71875 10.359375 21.1875 8.171875 
Q 24.65625 6 28.46875 6 
Q 34.03125 6 38.03125 10.484375 
Q 42.046875 14.984375 42.046875 22.703125 
Q 42.046875 30.125 38.078125 34.390625 
Q 34.125 38.671875 28.125 38.671875 
Q 22.171875 38.671875 18.015625 34.390625 
Q 13.875 30.125 13.875 23.1875 
z
" id="ArialMT-54"/>
       </defs>
       <use xlink:href="#ArialMT-54"/>
       <use x="55.615234" xlink:href="#ArialMT-48"/>
       <use x="111.230469" xlink:href="#ArialMT-48"/>
      </g>
     </g>
    </g>
    <g id="xtick_5">
     <g id="line2d_9">
      <path clip-path="url(#pf5f7bd512a)" d="M 568.946314 516.755625 
L 568.946314 27.515625 
" style="fill:none;stroke:#cccccc;stroke-linecap:round;stroke-width:0.8;"/>
     </g>
     <g id="line2d_10"/>
     <g id="text_5">
      <!-- 800 -->
      <g style="fill:#262626;" transform="translate(560.604908 527.413437)scale(0.1 -0.1)">
       <defs>
        <path d="M 17.671875 38.8125 
Q 12.203125 40.828125 9.5625 44.53125 
Q 6.9375 48.25 6.9375 53.421875 
Q 6.9375 61.234375 12.546875 66.546875 
Q 18.171875 71.875 27.484375 71.875 
Q 36.859375 71.875 42.578125 66.421875 
Q 48.296875 60.984375 48.296875 53.171875 
Q 48.296875 48.1875 45.671875 44.5 
Q 43.0625 40.828125 37.75 38.8125 
Q 44.34375 36.671875 47.78125 31.875 
Q 51.21875 27.09375 51.21875 20.453125 
Q 51.21875 11.28125 44.71875 5.03125 
Q 38.234375 -1.21875 27.640625 -1.21875 
Q 17.046875 -1.21875 10.546875 5.046875 
Q 4.046875 11.328125 4.046875 20.703125 
Q 4.046875 27.6875 7.59375 32.390625 
Q 11.140625 37.109375 17.671875 38.8125 
z
M 15.921875 53.71875 
Q 15.921875 48.640625 19.1875 45.40625 
Q 22.46875 42.1875 27.6875 42.1875 
Q 32.765625 42.1875 36.015625 45.375 
Q 39.265625 48.578125 39.265625 53.21875 
Q 39.265625 58.0625 35.90625 61.359375 
Q 32.5625 64.65625 27.59375 64.65625 
Q 22.5625 64.65625 19.234375 61.421875 
Q 15.921875 58.203125 15.921875 53.71875 
z
M 13.09375 20.65625 
Q 13.09375 16.890625 14.875 13.375 
Q 16.65625 9.859375 20.171875 7.921875 
Q 23.6875 6 27.734375 6 
Q 34.03125 6 38.125 10.046875 
Q 42.234375 14.109375 42.234375 20.359375 
Q 42.234375 26.703125 38.015625 30.859375 
Q 33.796875 35.015625 27.4375 35.015625 
Q 21.234375 35.015625 17.15625 30.90625 
Q 13.09375 26.8125 13.09375 20.65625 
z
" id="ArialMT-56"/>
       </defs>
       <use xlink:href="#ArialMT-56"/>
       <use x="55.615234" xlink:href="#ArialMT-48"/>
       <use x="111.230469" xlink:href="#ArialMT-48"/>
      </g>
     </g>
    </g>
    <g id="xtick_6">
     <g id="line2d_11">
      <path clip-path="url(#pf5f7bd512a)" d="M 690.813636 516.755625 
L 690.813636 27.515625 
" style="fill:none;stroke:#cccccc;stroke-linecap:round;stroke-width:0.8;"/>
     </g>
     <g id="line2d_12"/>
     <g id="text_6">
      <!-- 1000 -->
      <g style="fill:#262626;" transform="translate(679.691761 527.413437)scale(0.1 -0.1)">
       <defs>
        <path d="M 37.25 0 
L 28.46875 0 
L 28.46875 56 
Q 25.296875 52.984375 20.140625 49.953125 
Q 14.984375 46.921875 10.890625 45.40625 
L 10.890625 53.90625 
Q 18.265625 57.375 23.78125 62.296875 
Q 29.296875 67.234375 31.59375 71.875 
L 37.25 71.875 
z
" id="ArialMT-49"/>
       </defs>
       <use xlink:href="#ArialMT-49"/>
       <use x="55.615234" xlink:href="#ArialMT-48"/>
       <use x="111.230469" xlink:href="#ArialMT-48"/>
       <use x="166.845703" xlink:href="#ArialMT-48"/>
      </g>
     </g>
    </g>
    <g id="text_7">
     <!-- Epochs -->
     <g style="fill:#262626;" transform="translate(369.773438 540.55875)scale(0.1 -0.1)">
      <defs>
       <path d="M 7.90625 0 
L 7.90625 71.578125 
L 59.671875 71.578125 
L 59.671875 63.140625 
L 17.390625 63.140625 
L 17.390625 41.21875 
L 56.984375 41.21875 
L 56.984375 32.8125 
L 17.390625 32.8125 
L 17.390625 8.453125 
L 61.328125 8.453125 
L 61.328125 0 
z
" id="ArialMT-69"/>
       <path d="M 6.59375 -19.875 
L 6.59375 51.859375 
L 14.59375 51.859375 
L 14.59375 45.125 
Q 17.4375 49.078125 21 51.046875 
Q 24.5625 53.03125 29.640625 53.03125 
Q 36.28125 53.03125 41.359375 49.609375 
Q 46.4375 46.1875 49.015625 39.953125 
Q 51.609375 33.734375 51.609375 26.3125 
Q 51.609375 18.359375 48.75 11.984375 
Q 45.90625 5.609375 40.453125 2.21875 
Q 35.015625 -1.171875 29 -1.171875 
Q 24.609375 -1.171875 21.109375 0.6875 
Q 17.625 2.546875 15.375 5.375 
L 15.375 -19.875 
z
M 14.546875 25.640625 
Q 14.546875 15.625 18.59375 10.84375 
Q 22.65625 6.0625 28.421875 6.0625 
Q 34.28125 6.0625 38.453125 11.015625 
Q 42.625 15.96875 42.625 26.375 
Q 42.625 36.28125 38.546875 41.203125 
Q 34.46875 46.140625 28.8125 46.140625 
Q 23.1875 46.140625 18.859375 40.890625 
Q 14.546875 35.640625 14.546875 25.640625 
z
" id="ArialMT-112"/>
       <path d="M 3.328125 25.921875 
Q 3.328125 40.328125 11.328125 47.265625 
Q 18.015625 53.03125 27.640625 53.03125 
Q 38.328125 53.03125 45.109375 46.015625 
Q 51.90625 39.015625 51.90625 26.65625 
Q 51.90625 16.65625 48.90625 10.90625 
Q 45.90625 5.171875 40.15625 2 
Q 34.421875 -1.171875 27.640625 -1.171875 
Q 16.75 -1.171875 10.03125 5.8125 
Q 3.328125 12.796875 3.328125 25.921875 
z
M 12.359375 25.921875 
Q 12.359375 15.96875 16.703125 11.015625 
Q 21.046875 6.0625 27.640625 6.0625 
Q 34.1875 6.0625 38.53125 11.03125 
Q 42.875 16.015625 42.875 26.21875 
Q 42.875 35.84375 38.5 40.796875 
Q 34.125 45.75 27.640625 45.75 
Q 21.046875 45.75 16.703125 40.8125 
Q 12.359375 35.890625 12.359375 25.921875 
z
" id="ArialMT-111"/>
       <path d="M 40.4375 19 
L 49.078125 17.875 
Q 47.65625 8.9375 41.8125 3.875 
Q 35.984375 -1.171875 27.484375 -1.171875 
Q 16.84375 -1.171875 10.375 5.78125 
Q 3.90625 12.75 3.90625 25.734375 
Q 3.90625 34.125 6.6875 40.421875 
Q 9.46875 46.734375 15.15625 49.875 
Q 20.84375 53.03125 27.546875 53.03125 
Q 35.984375 53.03125 41.359375 48.75 
Q 46.734375 44.484375 48.25 36.625 
L 39.703125 35.296875 
Q 38.484375 40.53125 35.375 43.15625 
Q 32.28125 45.796875 27.875 45.796875 
Q 21.234375 45.796875 17.078125 41.03125 
Q 12.9375 36.28125 12.9375 25.984375 
Q 12.9375 15.53125 16.9375 10.796875 
Q 20.953125 6.0625 27.390625 6.0625 
Q 32.5625 6.0625 36.03125 9.234375 
Q 39.5 12.40625 40.4375 19 
z
" id="ArialMT-99"/>
       <path d="M 6.59375 0 
L 6.59375 71.578125 
L 15.375 71.578125 
L 15.375 45.90625 
Q 21.53125 53.03125 30.90625 53.03125 
Q 36.671875 53.03125 40.921875 50.75 
Q 45.171875 48.484375 47 44.484375 
Q 48.828125 40.484375 48.828125 32.859375 
L 48.828125 0 
L 40.046875 0 
L 40.046875 32.859375 
Q 40.046875 39.453125 37.1875 42.453125 
Q 34.328125 45.453125 29.109375 45.453125 
Q 25.203125 45.453125 21.75 43.421875 
Q 18.3125 41.40625 16.84375 37.9375 
Q 15.375 34.46875 15.375 28.375 
L 15.375 0 
z
" id="ArialMT-104"/>
       <path d="M 3.078125 15.484375 
L 11.765625 16.84375 
Q 12.5 11.625 15.84375 8.84375 
Q 19.1875 6.0625 25.203125 6.0625 
Q 31.25 6.0625 34.171875 8.515625 
Q 37.109375 10.984375 37.109375 14.3125 
Q 37.109375 17.28125 34.515625 19 
Q 32.71875 20.171875 25.53125 21.96875 
Q 15.875 24.421875 12.140625 26.203125 
Q 8.40625 27.984375 6.46875 31.125 
Q 4.546875 34.28125 4.546875 38.09375 
Q 4.546875 41.546875 6.125 44.5 
Q 7.71875 47.46875 10.453125 49.421875 
Q 12.5 50.921875 16.03125 51.96875 
Q 19.578125 53.03125 23.640625 53.03125 
Q 29.734375 53.03125 34.34375 51.265625 
Q 38.96875 49.515625 41.15625 46.5 
Q 43.359375 43.5 44.1875 38.484375 
L 35.59375 37.3125 
Q 35.015625 41.3125 32.203125 43.546875 
Q 29.390625 45.796875 24.265625 45.796875 
Q 18.21875 45.796875 15.625 43.796875 
Q 13.03125 41.796875 13.03125 39.109375 
Q 13.03125 37.40625 14.109375 36.03125 
Q 15.1875 34.625 17.484375 33.6875 
Q 18.796875 33.203125 25.25 31.453125 
Q 34.578125 28.953125 38.25 27.359375 
Q 41.9375 25.78125 44.03125 22.75 
Q 46.140625 19.734375 46.140625 15.234375 
Q 46.140625 10.84375 43.578125 6.953125 
Q 41.015625 3.078125 36.171875 0.953125 
Q 31.34375 -1.171875 25.25 -1.171875 
Q 15.140625 -1.171875 9.84375 3.03125 
Q 4.546875 7.234375 3.078125 15.484375 
z
" id="ArialMT-115"/>
      </defs>
      <use xlink:href="#ArialMT-69"/>
      <use x="66.699219" xlink:href="#ArialMT-112"/>
      <use x="122.314453" xlink:href="#ArialMT-111"/>
      <use x="177.929688" xlink:href="#ArialMT-99"/>
      <use x="227.929688" xlink:href="#ArialMT-104"/>
      <use x="283.544922" xlink:href="#ArialMT-115"/>
     </g>
    </g>
   </g>
   <g id="matplotlib.axis_2">
    <g id="ytick_1">
     <g id="line2d_13">
      <path clip-path="url(#pf5f7bd512a)" d="M 51.65 507.28554 
L 721.25 507.28554 
" style="fill:none;stroke:#cccccc;stroke-linecap:round;stroke-width:0.8;"/>
     </g>
     <g id="line2d_14"/>
     <g id="text_8">
      <!-- 0 -->
      <g style="fill:#262626;" transform="translate(42.589063 510.864447)scale(0.1 -0.1)">
       <use xlink:href="#ArialMT-48"/>
      </g>
     </g>
    </g>
    <g id="ytick_2">
     <g id="line2d_15">
      <path clip-path="url(#pf5f7bd512a)" d="M 51.65 415.166313 
L 721.25 415.166313 
" style="fill:none;stroke:#cccccc;stroke-linecap:round;stroke-width:0.8;"/>
     </g>
     <g id="line2d_16"/>
     <g id="text_9">
      <!-- 10000 -->
      <g style="fill:#262626;" transform="translate(20.345313 418.745219)scale(0.1 -0.1)">
       <use xlink:href="#ArialMT-49"/>
       <use x="55.615234" xlink:href="#ArialMT-48"/>
       <use x="111.230469" xlink:href="#ArialMT-48"/>
       <use x="166.845703" xlink:href="#ArialMT-48"/>
       <use x="222.460938" xlink:href="#ArialMT-48"/>
      </g>
     </g>
    </g>
    <g id="ytick_3">
     <g id="line2d_17">
      <path clip-path="url(#pf5f7bd512a)" d="M 51.65 323.047085 
L 721.25 323.047085 
" style="fill:none;stroke:#cccccc;stroke-linecap:round;stroke-width:0.8;"/>
     </g>
     <g id="line2d_18"/>
     <g id="text_10">
      <!-- 20000 -->
      <g style="fill:#262626;" transform="translate(20.345313 326.625992)scale(0.1 -0.1)">
       <use xlink:href="#ArialMT-50"/>
       <use x="55.615234" xlink:href="#ArialMT-48"/>
       <use x="111.230469" xlink:href="#ArialMT-48"/>
       <use x="166.845703" xlink:href="#ArialMT-48"/>
       <use x="222.460938" xlink:href="#ArialMT-48"/>
      </g>
     </g>
    </g>
    <g id="ytick_4">
     <g id="line2d_19">
      <path clip-path="url(#pf5f7bd512a)" d="M 51.65 230.927858 
L 721.25 230.927858 
" style="fill:none;stroke:#cccccc;stroke-linecap:round;stroke-width:0.8;"/>
     </g>
     <g id="line2d_20"/>
     <g id="text_11">
      <!-- 30000 -->
      <g style="fill:#262626;" transform="translate(20.345313 234.506764)scale(0.1 -0.1)">
       <defs>
        <path d="M 4.203125 18.890625 
L 12.984375 20.0625 
Q 14.5 12.59375 18.140625 9.296875 
Q 21.78125 6 27 6 
Q 33.203125 6 37.46875 10.296875 
Q 41.75 14.59375 41.75 20.953125 
Q 41.75 27 37.796875 30.921875 
Q 33.84375 34.859375 27.734375 34.859375 
Q 25.25 34.859375 21.53125 33.890625 
L 22.515625 41.609375 
Q 23.390625 41.5 23.921875 41.5 
Q 29.546875 41.5 34.03125 44.421875 
Q 38.53125 47.359375 38.53125 53.46875 
Q 38.53125 58.296875 35.25 61.46875 
Q 31.984375 64.65625 26.8125 64.65625 
Q 21.6875 64.65625 18.265625 61.421875 
Q 14.84375 58.203125 13.875 51.765625 
L 5.078125 53.328125 
Q 6.6875 62.15625 12.390625 67.015625 
Q 18.109375 71.875 26.609375 71.875 
Q 32.46875 71.875 37.390625 69.359375 
Q 42.328125 66.84375 44.9375 62.5 
Q 47.5625 58.15625 47.5625 53.265625 
Q 47.5625 48.640625 45.0625 44.828125 
Q 42.578125 41.015625 37.703125 38.765625 
Q 44.046875 37.3125 47.5625 32.6875 
Q 51.078125 28.078125 51.078125 21.140625 
Q 51.078125 11.765625 44.234375 5.25 
Q 37.40625 -1.265625 26.953125 -1.265625 
Q 17.53125 -1.265625 11.296875 4.34375 
Q 5.078125 9.96875 4.203125 18.890625 
z
" id="ArialMT-51"/>
       </defs>
       <use xlink:href="#ArialMT-51"/>
       <use x="55.615234" xlink:href="#ArialMT-48"/>
       <use x="111.230469" xlink:href="#ArialMT-48"/>
       <use x="166.845703" xlink:href="#ArialMT-48"/>
       <use x="222.460938" xlink:href="#ArialMT-48"/>
      </g>
     </g>
    </g>
    <g id="ytick_5">
     <g id="line2d_21">
      <path clip-path="url(#pf5f7bd512a)" d="M 51.65 138.808631 
L 721.25 138.808631 
" style="fill:none;stroke:#cccccc;stroke-linecap:round;stroke-width:0.8;"/>
     </g>
     <g id="line2d_22"/>
     <g id="text_12">
      <!-- 40000 -->
      <g style="fill:#262626;" transform="translate(20.345313 142.387537)scale(0.1 -0.1)">
       <use xlink:href="#ArialMT-52"/>
       <use x="55.615234" xlink:href="#ArialMT-48"/>
       <use x="111.230469" xlink:href="#ArialMT-48"/>
       <use x="166.845703" xlink:href="#ArialMT-48"/>
       <use x="222.460938" xlink:href="#ArialMT-48"/>
      </g>
     </g>
    </g>
    <g id="ytick_6">
     <g id="line2d_23">
      <path clip-path="url(#pf5f7bd512a)" d="M 51.65 46.689403 
L 721.25 46.689403 
" style="fill:none;stroke:#cccccc;stroke-linecap:round;stroke-width:0.8;"/>
     </g>
     <g id="line2d_24"/>
     <g id="text_13">
      <!-- 50000 -->
      <g style="fill:#262626;" transform="translate(20.345313 50.268309)scale(0.1 -0.1)">
       <defs>
        <path d="M 4.15625 18.75 
L 13.375 19.53125 
Q 14.40625 12.796875 18.140625 9.390625 
Q 21.875 6 27.15625 6 
Q 33.5 6 37.890625 10.78125 
Q 42.28125 15.578125 42.28125 23.484375 
Q 42.28125 31 38.0625 35.34375 
Q 33.84375 39.703125 27 39.703125 
Q 22.75 39.703125 19.328125 37.765625 
Q 15.921875 35.84375 13.96875 32.765625 
L 5.71875 33.84375 
L 12.640625 70.609375 
L 48.25 70.609375 
L 48.25 62.203125 
L 19.671875 62.203125 
L 15.828125 42.96875 
Q 22.265625 47.46875 29.34375 47.46875 
Q 38.71875 47.46875 45.15625 40.96875 
Q 51.609375 34.46875 51.609375 24.265625 
Q 51.609375 14.546875 45.953125 7.46875 
Q 39.0625 -1.21875 27.15625 -1.21875 
Q 17.390625 -1.21875 11.203125 4.25 
Q 5.03125 9.71875 4.15625 18.75 
z
" id="ArialMT-53"/>
       </defs>
       <use xlink:href="#ArialMT-53"/>
       <use x="55.615234" xlink:href="#ArialMT-48"/>
       <use x="111.230469" xlink:href="#ArialMT-48"/>
       <use x="166.845703" xlink:href="#ArialMT-48"/>
       <use x="222.460938" xlink:href="#ArialMT-48"/>
      </g>
     </g>
    </g>
    <g id="text_14">
     <!-- Loss -->
     <g style="fill:#262626;" transform="translate(14.357813 282.696562)rotate(-90)scale(0.1 -0.1)">
      <defs>
       <path d="M 7.328125 0 
L 7.328125 71.578125 
L 16.796875 71.578125 
L 16.796875 8.453125 
L 52.046875 8.453125 
L 52.046875 0 
z
" id="ArialMT-76"/>
      </defs>
      <use xlink:href="#ArialMT-76"/>
      <use x="55.615234" xlink:href="#ArialMT-111"/>
      <use x="111.230469" xlink:href="#ArialMT-115"/>
      <use x="161.230469" xlink:href="#ArialMT-115"/>
     </g>
    </g>
   </g>
   <g id="line2d_25">
    <path clip-path="url(#pf5f7bd512a)" d="M 82.086364 88.666768 
L 82.6957 92.185578 
L 84.52371 150.024974 
L 85.133047 164.424289 
L 85.742383 190.045741 
L 86.35172 203.108391 
L 86.961057 223.736837 
L 87.570393 254.010957 
L 88.789066 304.798464 
L 89.398403 333.856053 
L 90.00774 372.930511 
L 91.226413 424.67613 
L 92.445086 472.688761 
L 93.054423 465.794015 
L 93.663759 468.558361 
L 94.273096 467.225947 
L 94.882432 471.85199 
L 95.491769 463.25931 
L 96.101106 476.832109 
L 96.710442 471.160495 
L 97.319779 450.179401 
L 97.929115 473.833639 
L 98.538452 469.643667 
L 99.147789 476.478102 
L 99.757125 478.525927 
L 100.366462 471.744463 
L 100.975799 477.161914 
L 101.585135 474.721782 
L 102.194472 474.578676 
L 102.803808 457.901327 
L 103.413145 480.305553 
L 104.022482 474.712454 
L 104.631818 476.446009 
L 105.241155 475.774739 
L 105.850491 466.386978 
L 106.459828 482.359238 
L 107.069165 477.573691 
L 107.678501 477.571303 
L 108.287838 472.229366 
L 108.897174 474.876629 
L 109.506511 461.949135 
L 110.115848 482.127804 
L 110.725184 477.888327 
L 111.334521 472.383524 
L 111.943857 478.309156 
L 112.553194 480.892372 
L 113.162531 476.478988 
L 113.771867 479.066281 
L 114.381204 466.823614 
L 114.990541 466.558604 
L 115.599877 472.797392 
L 116.209214 480.353684 
L 116.81855 467.820935 
L 117.427887 471.657518 
L 118.037224 472.106788 
L 118.64656 478.807324 
L 119.255897 478.141428 
L 119.865233 474.04454 
L 120.47457 475.427909 
L 121.083907 480.251093 
L 121.693243 472.102074 
L 122.30258 480.81004 
L 122.911916 481.322786 
L 123.521253 464.643928 
L 124.13059 477.524281 
L 124.739926 469.655967 
L 125.349263 480.30056 
L 125.9586 478.557062 
L 126.567936 468.191723 
L 127.177273 467.836453 
L 127.786609 479.451779 
L 128.395946 462.262583 
L 129.005283 476.65507 
L 129.614619 465.173514 
L 130.223956 469.223459 
L 130.833292 481.485333 
L 131.442629 481.470155 
L 132.051966 482.041175 
L 132.661302 470.863941 
L 133.270639 474.785461 
L 133.879975 482.941833 
L 134.489312 478.451644 
L 135.098649 484.148494 
L 135.707985 478.651619 
L 136.317322 468.700795 
L 136.926658 469.230377 
L 137.535995 477.349825 
L 138.145332 475.783178 
L 138.754668 475.591688 
L 139.364005 476.172172 
L 139.973342 476.019568 
L 140.582678 482.617963 
L 141.192015 482.135912 
L 141.801351 480.071661 
L 142.410688 477.37189 
L 143.020025 479.030677 
L 143.629361 475.385779 
L 144.238698 474.558817 
L 144.848034 481.645611 
L 145.457371 467.977866 
L 146.066708 477.373071 
L 146.676044 472.044894 
L 147.285381 478.875505 
L 147.894717 452.991903 
L 148.504054 479.081419 
L 149.113391 467.268323 
L 149.722727 488.748147 
L 150.332064 473.840605 
L 150.9414 474.821359 
L 151.550737 462.564309 
L 152.160074 481.884007 
L 152.76941 473.139385 
L 153.378747 480.378369 
L 153.988084 467.535941 
L 154.59742 470.599123 
L 155.206757 474.742165 
L 156.42543 475.909788 
L 157.034767 479.204078 
L 157.644103 465.487556 
L 158.862776 484.900528 
L 159.472113 470.599746 
L 160.08145 481.362733 
L 160.690786 483.588958 
L 161.300123 479.208832 
L 161.909459 479.186945 
L 162.518796 481.456987 
L 163.128133 465.528538 
L 163.737469 479.626634 
L 164.346806 484.749568 
L 164.956143 480.601834 
L 165.565479 480.927825 
L 166.174816 483.472398 
L 166.784152 477.448392 
L 167.393489 472.907416 
L 168.002826 482.544632 
L 168.612162 488.000387 
L 169.221499 481.512119 
L 169.830835 470.718946 
L 170.440172 482.443254 
L 171.049509 481.423998 
L 171.658845 479.498641 
L 172.268182 481.295783 
L 172.877518 477.108498 
L 173.486855 487.86882 
L 174.096192 487.399954 
L 174.705528 479.98426 
L 175.314865 479.795908 
L 175.924201 477.026484 
L 176.533538 486.003241 
L 177.142875 475.565985 
L 177.752211 470.741685 
L 178.361548 482.782692 
L 178.970885 478.768167 
L 179.580221 481.392096 
L 180.189558 478.449433 
L 180.798894 487.000295 
L 181.408231 482.556415 
L 182.017568 483.300781 
L 182.626904 479.623279 
L 183.236241 483.946824 
L 183.845577 479.687522 
L 184.454914 481.073756 
L 185.064251 475.283822 
L 185.673587 476.861067 
L 186.282924 474.835798 
L 186.89226 482.428174 
L 187.501597 480.290698 
L 188.110934 471.331008 
L 188.72027 481.315479 
L 189.329607 482.471088 
L 189.938943 484.041727 
L 190.54828 478.525713 
L 191.157617 477.560195 
L 191.766953 481.143237 
L 192.37629 474.420744 
L 192.985627 471.63665 
L 193.594963 480.807987 
L 194.2043 487.892522 
L 194.813636 469.863647 
L 195.422973 480.527266 
L 196.03231 478.399523 
L 196.641646 481.823404 
L 197.250983 478.788268 
L 197.860319 468.556476 
L 198.469656 469.314098 
L 199.078993 469.450703 
L 199.688329 474.736167 
L 200.297666 488.418187 
L 200.907002 479.765686 
L 201.516339 480.04396 
L 202.125676 480.914259 
L 202.735012 482.665829 
L 203.344349 479.490255 
L 203.953686 491.251275 
L 204.563022 477.338672 
L 205.172359 479.285836 
L 205.781695 472.754621 
L 206.391032 478.22566 
L 207.000369 476.32152 
L 207.609705 481.747702 
L 208.219042 471.095434 
L 208.828378 470.656603 
L 209.437715 478.962735 
L 210.047052 478.14786 
L 210.656388 469.505493 
L 211.265725 478.321676 
L 211.875061 482.444624 
L 212.484398 484.435805 
L 213.093735 483.988322 
L 213.703071 483.940135 
L 214.312408 458.410537 
L 214.921744 485.850201 
L 215.531081 484.079079 
L 216.140418 477.531729 
L 216.749754 474.943197 
L 217.359091 482.463751 
L 217.968428 487.336854 
L 218.577764 481.97469 
L 219.187101 474.274892 
L 219.796437 479.094207 
L 220.405774 481.21841 
L 221.015111 475.195342 
L 222.233784 483.429026 
L 222.84312 479.697039 
L 223.452457 474.569601 
L 224.061794 477.662799 
L 224.67113 478.159224 
L 225.280467 477.737102 
L 225.889803 478.870233 
L 226.49914 468.935951 
L 227.108477 481.435959 
L 227.717813 482.42544 
L 228.32715 483.916656 
L 228.936486 488.054275 
L 229.545823 475.977094 
L 230.15516 479.512709 
L 230.764496 486.720667 
L 231.373833 482.736005 
L 231.98317 481.756748 
L 232.592506 479.901859 
L 233.201843 471.519648 
L 233.811179 480.116198 
L 234.420516 477.576437 
L 235.029853 485.008003 
L 235.639189 473.366449 
L 236.248526 482.027953 
L 236.857862 484.089782 
L 237.467199 484.801799 
L 238.076536 483.822366 
L 238.685872 487.550836 
L 239.295209 478.139772 
L 239.904545 486.976782 
L 240.513882 479.593162 
L 241.123219 488.542671 
L 241.732555 483.08825 
L 242.341892 475.719077 
L 242.951229 486.161992 
L 243.560565 480.253155 
L 244.169902 479.922693 
L 244.779238 484.969313 
L 245.388575 480.149472 
L 245.997912 481.015071 
L 246.607248 470.616157 
L 247.216585 471.257686 
L 247.825921 478.086937 
L 248.435258 486.738401 
L 249.044595 477.216106 
L 249.653931 483.248071 
L 250.263268 479.608089 
L 250.872604 482.873027 
L 251.481941 481.616742 
L 252.091278 472.205416 
L 252.700614 477.974556 
L 253.309951 479.738185 
L 253.919287 485.350969 
L 254.528624 479.386146 
L 255.137961 485.287824 
L 255.747297 479.227823 
L 256.356634 481.876534 
L 256.965971 479.020519 
L 257.575307 478.474469 
L 258.184644 486.89779 
L 258.79398 489.787448 
L 259.403317 480.927474 
L 260.012654 482.123853 
L 260.62199 475.342197 
L 261.231327 478.668945 
L 261.840663 479.792244 
L 262.45 487.940673 
L 263.059337 487.16962 
L 263.668673 482.693013 
L 264.27801 484.743284 
L 264.887346 480.095835 
L 265.496683 483.01162 
L 266.10602 482.057703 
L 266.715356 485.152306 
L 267.324693 482.721231 
L 267.934029 487.499727 
L 268.543366 487.155949 
L 269.152703 488.230285 
L 269.762039 486.823321 
L 270.371376 477.545626 
L 270.980713 482.047103 
L 271.590049 479.669372 
L 272.808722 485.291182 
L 274.027396 469.193241 
L 274.636732 486.247949 
L 275.246069 482.111656 
L 275.855405 481.674322 
L 276.464742 484.112838 
L 277.074079 483.046513 
L 277.683415 486.031026 
L 278.292752 485.552509 
L 278.902088 480.596911 
L 279.511425 473.473398 
L 280.120762 487.838105 
L 280.730098 488.403413 
L 281.339435 481.255314 
L 281.948771 480.103396 
L 282.558108 465.370815 
L 283.167445 481.338185 
L 283.776781 483.513198 
L 284.386118 481.074595 
L 284.995455 481.549329 
L 285.604791 485.269052 
L 286.214128 484.304782 
L 286.823464 480.556944 
L 287.432801 485.73677 
L 288.042138 483.514169 
L 288.651474 480.735735 
L 289.260811 483.05429 
L 289.870147 483.720158 
L 290.479484 482.168311 
L 291.088821 483.376292 
L 291.698157 482.656255 
L 292.307494 486.23999 
L 292.91683 481.244357 
L 293.526167 479.525452 
L 294.135504 470.534215 
L 294.74484 468.805711 
L 295.354177 482.878933 
L 295.963514 486.092307 
L 296.57285 481.78043 
L 297.182187 482.719774 
L 297.791523 481.839718 
L 298.40086 480.524079 
L 299.010197 488.349646 
L 299.619533 482.649357 
L 300.22887 481.738816 
L 300.838206 481.747826 
L 301.447543 483.229731 
L 302.05688 487.173743 
L 302.666216 485.113043 
L 303.275553 478.745951 
L 303.884889 489.193801 
L 304.494226 478.984811 
L 305.103563 483.243 
L 305.712899 484.981467 
L 306.322236 479.785945 
L 306.931572 479.179701 
L 307.540909 477.963876 
L 308.150246 476.298101 
L 308.759582 484.323451 
L 309.368919 477.256091 
L 309.978256 476.347968 
L 310.587592 481.550026 
L 311.196929 485.350598 
L 311.806265 482.938143 
L 312.415602 481.35044 
L 313.024939 481.704143 
L 313.634275 483.353961 
L 314.243612 482.999813 
L 314.852948 485.234977 
L 315.462285 478.782689 
L 316.071622 479.439872 
L 316.680958 483.189606 
L 317.290295 486.124321 
L 317.899631 482.566389 
L 318.508968 485.0656 
L 319.118305 486.419766 
L 319.727641 481.165327 
L 320.336978 486.085479 
L 320.946314 479.49988 
L 321.555651 485.049673 
L 322.164988 482.733515 
L 322.774324 484.198424 
L 323.383661 479.939491 
L 323.992998 490.044206 
L 324.602334 485.157636 
L 325.211671 483.858049 
L 325.821007 484.492048 
L 326.430344 487.292679 
L 327.039681 487.482652 
L 327.649017 487.160073 
L 328.258354 479.964538 
L 328.86769 488.915153 
L 329.477027 488.481985 
L 330.086364 484.389322 
L 331.305037 488.101169 
L 331.914373 474.917943 
L 332.52371 484.123629 
L 333.742383 487.70601 
L 334.35172 472.329287 
L 334.961057 483.070924 
L 335.570393 484.905392 
L 336.17973 472.640922 
L 336.789066 481.52214 
L 337.398403 483.492855 
L 338.00774 485.067712 
L 338.617076 479.470621 
L 339.226413 481.350415 
L 339.835749 477.513865 
L 340.445086 476.232976 
L 341.054423 483.323456 
L 341.663759 482.625034 
L 342.273096 479.697696 
L 342.882432 479.783104 
L 344.101106 489.685594 
L 344.710442 486.100675 
L 345.319779 480.308854 
L 345.929115 489.137907 
L 346.538452 484.127099 
L 347.147789 477.256935 
L 347.757125 482.426049 
L 348.366462 482.529033 
L 348.975799 487.603593 
L 349.585135 481.638951 
L 350.194472 490.109223 
L 350.803808 476.29027 
L 351.413145 486.071881 
L 352.022482 488.000225 
L 352.631818 488.846424 
L 353.241155 480.68579 
L 353.850491 485.014062 
L 354.459828 481.176055 
L 355.069165 487.110256 
L 355.678501 488.589752 
L 356.287838 479.420356 
L 356.897174 483.787389 
L 357.506511 480.241863 
L 358.115848 486.313328 
L 359.334521 487.036414 
L 359.943857 470.541936 
L 360.553194 474.47428 
L 361.162531 475.312792 
L 361.771867 483.416787 
L 362.381204 485.48627 
L 362.990541 485.554136 
L 363.599877 485.154278 
L 364.209214 482.479314 
L 364.81855 483.545729 
L 365.427887 483.479975 
L 366.037224 482.358925 
L 366.64656 482.270474 
L 367.255897 482.726343 
L 367.865233 479.268537 
L 368.47457 483.20684 
L 369.083907 479.383184 
L 369.693243 486.698652 
L 370.30258 487.79095 
L 370.911916 485.434878 
L 371.521253 483.966381 
L 372.13059 489.283515 
L 372.739926 488.171631 
L 373.349263 490.107046 
L 374.567936 483.177127 
L 375.177273 473.93632 
L 375.786609 489.044052 
L 376.395946 484.399139 
L 377.005283 482.993873 
L 378.223956 486.313525 
L 378.833292 480.169252 
L 380.051966 491.965942 
L 380.661302 488.689519 
L 381.270639 486.568061 
L 381.879975 477.702215 
L 382.489312 477.41723 
L 383.098649 484.713048 
L 383.707985 485.850154 
L 384.317322 489.206349 
L 384.926658 483.032543 
L 385.535995 486.904872 
L 386.145332 484.873744 
L 386.754668 481.102134 
L 387.364005 483.047447 
L 387.973342 478.842074 
L 388.582678 481.941463 
L 389.192015 475.164132 
L 389.801351 486.702801 
L 390.410688 487.05439 
L 391.020025 484.096634 
L 391.629361 487.690769 
L 392.238698 485.239066 
L 392.848034 484.088599 
L 393.457371 483.488908 
L 394.066708 488.895148 
L 394.676044 484.798067 
L 395.285381 478.327434 
L 395.894717 477.644555 
L 396.504054 487.864887 
L 397.113391 483.117841 
L 398.332064 482.182295 
L 398.9414 478.031132 
L 399.550737 486.353031 
L 400.160074 488.446418 
L 400.76941 487.829957 
L 401.378747 479.283589 
L 401.988084 485.045193 
L 402.59742 478.590401 
L 403.206757 484.33941 
L 403.816093 483.335279 
L 404.42543 486.550863 
L 405.034767 481.693528 
L 405.644103 483.406176 
L 406.25344 482.961256 
L 406.862776 486.166897 
L 407.472113 478.440707 
L 408.08145 482.575122 
L 408.690786 484.873803 
L 409.300123 477.423192 
L 409.909459 481.352606 
L 410.518796 484.289264 
L 411.128133 483.465368 
L 411.737469 480.051532 
L 412.346806 485.79029 
L 412.956143 485.542038 
L 413.565479 489.054267 
L 414.174816 483.708546 
L 414.784152 487.078599 
L 415.393489 484.768095 
L 416.002826 491.849196 
L 416.612162 485.461701 
L 417.221499 485.715659 
L 417.830835 481.994173 
L 418.440172 469.001473 
L 419.049509 477.615718 
L 419.658845 489.716807 
L 420.268182 474.973028 
L 420.877518 486.13708 
L 421.486855 483.901088 
L 422.096192 488.081785 
L 422.705528 484.455411 
L 423.314865 484.689899 
L 423.924201 485.318829 
L 424.533538 486.754958 
L 425.142875 486.277971 
L 425.752211 484.84813 
L 426.361548 487.707362 
L 426.970885 488.694605 
L 427.580221 483.359285 
L 428.189558 483.71519 
L 428.798894 481.846901 
L 429.408231 482.843777 
L 430.017568 479.575991 
L 430.626904 481.254205 
L 431.236241 475.445299 
L 431.845577 484.319029 
L 432.454914 487.068429 
L 433.064251 484.688033 
L 433.673587 487.519813 
L 434.282924 479.612189 
L 434.89226 486.294481 
L 435.501597 482.552708 
L 436.110934 490.12372 
L 436.72027 488.136269 
L 437.329607 489.738383 
L 437.938943 484.863885 
L 438.54828 483.09677 
L 439.157617 476.193122 
L 439.766953 483.23572 
L 440.37629 483.753969 
L 440.985627 486.184154 
L 441.594963 490.702372 
L 442.2043 485.502429 
L 442.813636 489.243261 
L 443.422973 483.974345 
L 444.03231 482.247222 
L 444.641646 486.350463 
L 445.250983 486.903021 
L 445.860319 484.59868 
L 446.469656 481.676564 
L 447.078993 487.510509 
L 447.688329 484.63438 
L 448.297666 483.568827 
L 448.907002 486.60956 
L 449.516339 487.565141 
L 450.735012 484.131606 
L 451.344349 482.810973 
L 451.953686 487.088807 
L 452.563022 482.561261 
L 453.172359 482.111807 
L 453.781695 488.690289 
L 454.391032 483.896475 
L 455.000369 490.549253 
L 455.609705 487.259486 
L 456.219042 492.698176 
L 456.828378 492.97302 
L 457.437715 492.178001 
L 458.047052 476.588861 
L 459.265725 486.335626 
L 459.875061 489.300426 
L 460.484398 486.596691 
L 461.093735 487.190439 
L 461.703071 480.348747 
L 462.312408 486.75057 
L 462.921744 476.303188 
L 463.531081 485.370372 
L 464.140418 485.08753 
L 464.749754 490.000732 
L 465.359091 482.180588 
L 465.968428 488.280928 
L 466.577764 487.87516 
L 467.187101 490.745258 
L 467.796437 475.636079 
L 468.405774 484.265742 
L 469.015111 480.066558 
L 469.624447 485.463388 
L 470.233784 489.638356 
L 470.84312 480.621155 
L 471.452457 485.582675 
L 472.061794 485.908149 
L 472.67113 486.4924 
L 473.280467 483.794285 
L 473.889803 485.395412 
L 474.49914 482.271084 
L 475.108477 486.849004 
L 475.717813 487.597248 
L 476.32715 485.115254 
L 476.936486 486.105029 
L 477.545823 485.831811 
L 478.15516 484.395057 
L 478.764496 480.098075 
L 479.373833 477.651752 
L 479.98317 487.7697 
L 480.592506 487.533511 
L 481.201843 487.006552 
L 481.811179 481.977953 
L 482.420516 490.665689 
L 483.029853 477.918578 
L 483.639189 480.150578 
L 484.248526 480.960431 
L 484.857862 486.825044 
L 485.467199 481.97516 
L 486.076536 490.170177 
L 486.685872 481.548883 
L 487.295209 485.906246 
L 487.904545 488.658805 
L 488.513882 480.024389 
L 489.123219 487.049562 
L 489.732555 487.526189 
L 490.951229 474.306886 
L 491.560565 484.374042 
L 492.169902 480.076482 
L 493.388575 485.723776 
L 493.997912 487.0819 
L 494.607248 484.963994 
L 495.216585 484.150287 
L 495.825921 487.094785 
L 496.435258 471.473952 
L 497.044595 487.856041 
L 497.653931 478.423268 
L 498.263268 481.184196 
L 498.872604 487.45031 
L 499.481941 487.979352 
L 500.091278 488.34939 
L 500.700614 481.068577 
L 501.309951 481.12977 
L 501.919287 485.134136 
L 502.528624 485.620819 
L 503.137961 480.692384 
L 503.747297 479.002169 
L 504.356634 488.911473 
L 504.965971 479.887305 
L 505.575307 484.50625 
L 506.184644 490.707733 
L 506.79398 483.960217 
L 507.403317 485.405215 
L 508.012654 480.596113 
L 508.62199 488.481011 
L 509.231327 485.602788 
L 509.840663 486.787312 
L 510.45 477.143711 
L 511.059337 491.356927 
L 511.668673 482.693321 
L 512.27801 487.29874 
L 512.887346 486.829726 
L 513.496683 484.735635 
L 514.10602 483.597704 
L 514.715356 480.137381 
L 515.324693 487.394226 
L 515.934029 482.039405 
L 516.543366 488.368265 
L 517.152703 482.263444 
L 517.762039 487.33228 
L 518.371376 482.97345 
L 518.980713 482.222422 
L 519.590049 481.901876 
L 520.199386 487.100256 
L 520.808722 486.81529 
L 521.418059 488.983728 
L 522.027396 487.245781 
L 522.636732 483.779633 
L 523.246069 484.694748 
L 523.855405 489.320181 
L 524.464742 489.183737 
L 525.074079 474.762069 
L 525.683415 482.462382 
L 526.292752 488.120176 
L 526.902088 486.883799 
L 527.511425 487.041557 
L 528.120762 488.697231 
L 528.730098 486.71466 
L 529.339435 488.562554 
L 529.948771 487.771357 
L 530.558108 489.667658 
L 531.167445 487.914171 
L 531.776781 485.135902 
L 532.386118 487.75903 
L 532.995455 476.170324 
L 533.604791 486.522798 
L 534.214128 483.617718 
L 534.823464 486.867574 
L 535.432801 484.916154 
L 536.042138 482.191381 
L 536.651474 483.104457 
L 537.260811 487.827659 
L 537.870147 485.906917 
L 538.479484 488.494281 
L 539.088821 491.826499 
L 539.698157 486.519489 
L 540.307494 491.789396 
L 540.91683 484.92064 
L 541.526167 486.065935 
L 542.135504 485.877801 
L 542.74484 476.839115 
L 543.354177 490.487789 
L 543.963514 485.302726 
L 544.57285 485.112301 
L 545.182187 488.846703 
L 545.791523 487.076228 
L 546.40086 488.440204 
L 547.010197 485.90548 
L 547.619533 472.216014 
L 548.22887 484.555883 
L 548.838206 488.501979 
L 549.447543 487.142131 
L 550.05688 480.256191 
L 550.666216 489.279682 
L 551.275553 487.1017 
L 551.884889 489.375144 
L 552.494226 482.242263 
L 553.103563 484.296189 
L 553.712899 487.983355 
L 554.322236 483.541753 
L 554.931572 487.985678 
L 555.540909 490.130434 
L 556.150246 485.482413 
L 556.759582 483.910358 
L 557.368919 484.684423 
L 557.978256 482.00206 
L 558.587592 489.812867 
L 559.196929 489.431347 
L 559.806265 488.753487 
L 560.415602 493.964356 
L 561.024939 486.103462 
L 561.634275 487.826595 
L 562.243612 483.10053 
L 562.852948 488.518812 
L 563.462285 487.188489 
L 564.071622 486.677282 
L 564.680958 487.745779 
L 565.290295 481.792974 
L 565.899631 485.586051 
L 566.508968 479.974513 
L 567.727641 492.357623 
L 568.336978 485.53763 
L 568.946314 487.768892 
L 569.555651 492.318777 
L 570.164988 483.025317 
L 570.774324 489.126521 
L 571.383661 484.231035 
L 571.992998 483.180583 
L 572.602334 489.877583 
L 573.211671 484.859051 
L 573.821007 491.090475 
L 574.430344 483.056486 
L 575.039681 484.226935 
L 575.649017 487.622729 
L 576.258354 482.584597 
L 576.86769 482.932028 
L 577.477027 487.504301 
L 578.086364 485.142689 
L 578.6957 488.354859 
L 579.305037 488.044164 
L 579.914373 490.02358 
L 580.52371 489.722067 
L 581.133047 486.451637 
L 582.35172 489.060122 
L 582.961057 488.266437 
L 583.570393 485.871571 
L 584.17973 490.342549 
L 584.789066 486.061446 
L 585.398403 491.628643 
L 586.00774 486.338118 
L 586.617076 490.608906 
L 587.226413 484.527361 
L 587.835749 487.224782 
L 588.445086 484.962519 
L 589.054423 487.792961 
L 589.663759 483.949858 
L 590.273096 485.625051 
L 590.882432 484.385116 
L 591.491769 481.75688 
L 592.101106 487.547574 
L 592.710442 483.461088 
L 593.319779 476.803448 
L 593.929115 486.481648 
L 594.538452 482.699033 
L 595.147789 488.702335 
L 595.757125 486.293957 
L 596.366462 483.013741 
L 596.975799 487.885485 
L 597.585135 484.791244 
L 598.194472 487.897308 
L 598.803808 486.92568 
L 599.413145 482.749107 
L 600.022482 489.022329 
L 600.631818 490.409037 
L 601.241155 486.245954 
L 601.850491 485.999985 
L 602.459828 482.952017 
L 603.069165 490.752801 
L 603.678501 483.570464 
L 604.287838 490.531736 
L 604.897174 483.112803 
L 605.506511 489.617763 
L 606.115848 485.210166 
L 606.725184 479.743263 
L 607.334521 481.435484 
L 607.943857 487.350213 
L 608.553194 486.532439 
L 609.162531 487.113613 
L 609.771867 486.378045 
L 610.381204 486.213499 
L 610.990541 487.620955 
L 611.599877 484.85895 
L 612.209214 487.35705 
L 612.81855 490.415269 
L 613.427887 487.201896 
L 614.037224 489.941621 
L 614.64656 487.483552 
L 615.255897 488.134005 
L 615.865233 490.511742 
L 616.47457 488.278494 
L 617.083907 478.664578 
L 617.693243 491.903267 
L 618.911916 482.192348 
L 619.521253 487.166103 
L 620.13059 489.132902 
L 620.739926 485.369668 
L 621.349263 474.781289 
L 621.9586 486.82653 
L 622.567936 487.960856 
L 623.177273 483.541243 
L 624.395946 489.790447 
L 625.005283 492.414805 
L 625.614619 489.240098 
L 626.223956 487.999784 
L 626.833292 489.740726 
L 627.442629 487.420832 
L 628.051966 489.156329 
L 628.661302 488.749746 
L 629.270639 487.161845 
L 629.879975 487.580367 
L 630.489312 482.059158 
L 631.098649 490.014148 
L 631.707985 492.164437 
L 632.317322 483.613568 
L 632.926658 484.751952 
L 633.535995 483.314091 
L 634.145332 487.393356 
L 634.754668 482.280244 
L 635.364005 482.660411 
L 635.973342 485.995269 
L 636.582678 481.65966 
L 637.192015 489.189452 
L 637.801351 489.718356 
L 638.410688 488.320834 
L 639.020025 482.933519 
L 639.629361 487.742068 
L 640.238698 485.847174 
L 640.848034 487.209324 
L 641.457371 487.561912 
L 642.066708 484.230077 
L 642.676044 485.996389 
L 643.285381 488.985209 
L 643.894717 485.089574 
L 644.504054 492.591037 
L 645.113391 484.007731 
L 645.722727 489.636725 
L 646.332064 483.563926 
L 646.9414 487.255296 
L 647.550737 486.196377 
L 648.160074 479.803489 
L 648.76941 482.98996 
L 649.378747 492.741503 
L 649.988084 491.481558 
L 650.59742 487.148646 
L 651.206757 492.716141 
L 651.816093 491.076516 
L 652.42543 482.769346 
L 653.034767 481.476481 
L 653.644103 488.753718 
L 654.25344 483.863055 
L 654.862776 490.974331 
L 655.472113 488.154873 
L 656.08145 483.132997 
L 656.690786 474.678446 
L 657.300123 474.108771 
L 657.909459 482.9032 
L 658.518796 486.350074 
L 659.128133 487.849377 
L 659.737469 491.829468 
L 660.956143 485.374296 
L 661.565479 486.936027 
L 662.174816 487.500815 
L 662.784152 488.843159 
L 663.393489 489.769752 
L 664.002826 492.38974 
L 664.612162 487.192825 
L 665.221499 490.10901 
L 665.830835 484.936851 
L 666.440172 488.685977 
L 667.049509 481.498508 
L 667.658845 478.800316 
L 668.268182 484.985479 
L 668.877518 489.298491 
L 669.486855 484.085936 
L 670.096192 488.743557 
L 670.705528 488.079608 
L 671.314865 479.997268 
L 671.924201 490.49853 
L 672.533538 491.717891 
L 673.142875 489.893417 
L 673.752211 489.113058 
L 674.361548 486.709278 
L 674.970885 491.152357 
L 675.580221 491.905074 
L 676.189558 488.043721 
L 676.798894 486.950995 
L 677.408231 489.616399 
L 678.017568 492.837367 
L 678.626904 488.258285 
L 679.236241 486.607434 
L 679.845577 486.4422 
L 680.454914 485.523931 
L 681.064251 481.847783 
L 681.673587 490.569935 
L 682.282924 490.471609 
L 682.89226 483.674816 
L 683.501597 482.842448 
L 684.110934 490.683688 
L 684.72027 485.229283 
L 685.329607 491.695258 
L 686.54828 487.247719 
L 687.157617 491.75193 
L 687.766953 482.696404 
L 688.37629 492.083889 
L 688.985627 486.376133 
L 689.594963 483.889636 
L 690.2043 487.183126 
L 690.813636 492.562837 
L 690.813636 492.562837 
" style="fill:none;stroke:#1f77b4;stroke-linecap:round;stroke-width:1.5;"/>
   </g>
   <g id="line2d_26">
    <path clip-path="url(#pf5f7bd512a)" d="M 82.086364 49.753807 
L 82.6957 61.484939 
L 83.305037 76.304943 
L 84.52371 117.175474 
L 86.35172 182.971992 
L 87.570393 239.858169 
L 88.789066 307.297234 
L 90.617076 415.528924 
L 91.226413 443.203861 
L 91.835749 463.653592 
L 92.445086 474.498603 
L 93.054423 479.722188 
L 93.663759 479.206822 
L 94.273096 477.429991 
L 94.882432 478.222077 
L 95.491769 479.673877 
L 96.101106 479.975111 
L 97.319779 479.217754 
L 97.929115 479.215923 
L 98.538452 478.916396 
L 99.757125 479.324654 
L 100.366462 479.792118 
L 100.975799 479.874524 
L 101.585135 478.751493 
L 102.194472 478.58537 
L 103.413145 479.049344 
L 104.022482 479.661139 
L 104.631818 480.459391 
L 108.897174 480.56549 
L 109.506511 480.188748 
L 110.115848 479.991583 
L 111.334521 479.905956 
L 111.943857 479.653771 
L 112.553194 479.600285 
L 113.771867 479.745571 
L 114.381204 480.106804 
L 114.990541 480.748035 
L 115.599877 480.216481 
L 116.209214 480.158684 
L 116.81855 480.5637 
L 117.427887 481.128603 
L 118.037224 481.041877 
L 118.64656 480.595906 
L 119.255897 480.343194 
L 119.865233 480.387513 
L 121.083907 479.516532 
L 121.693243 479.588691 
L 122.30258 480.589276 
L 122.911916 481.109138 
L 123.521253 481.429342 
L 125.349263 481.602124 
L 127.786609 481.658986 
L 129.005283 481.526373 
L 130.223956 481.789381 
L 130.833292 481.76423 
L 131.442629 481.215279 
L 132.051966 480.426974 
L 132.661302 480.474334 
L 133.270639 481.510814 
L 133.879975 481.911909 
L 134.489312 480.796825 
L 135.098649 481.27506 
L 136.317322 482.427666 
L 136.926658 482.803329 
L 137.535995 482.975366 
L 138.145332 482.136391 
L 138.754668 480.266182 
L 139.364005 480.869542 
L 139.973342 481.99646 
L 140.582678 482.525235 
L 142.410688 482.233714 
L 146.066708 483.881083 
L 146.676044 484.650823 
L 147.894717 485.236221 
L 148.504054 485.344549 
L 150.332064 486.424725 
L 151.550737 486.609767 
L 152.160074 486.704872 
L 152.76941 485.958846 
L 153.988084 487.444107 
L 154.59742 487.735647 
L 155.206757 487.258314 
L 155.816093 487.259425 
L 156.42543 488.035746 
L 157.034767 488.282846 
L 157.644103 488.271205 
L 158.862776 488.635521 
L 160.08145 488.883473 
L 161.909459 488.760372 
L 162.518796 489.093409 
L 163.737469 489.104153 
L 164.346806 489.257024 
L 164.956143 489.276498 
L 165.565479 488.594744 
L 166.174816 488.640001 
L 166.784152 489.017312 
L 167.393489 488.443604 
L 168.002826 489.204775 
L 168.612162 489.315327 
L 169.830835 488.248873 
L 170.440172 489.094904 
L 171.049509 487.37797 
L 171.658845 486.289544 
L 172.877518 489.425707 
L 173.486855 489.609362 
L 174.705528 489.639308 
L 175.314865 489.333934 
L 175.924201 489.201804 
L 177.142875 489.678141 
L 177.752211 489.701818 
L 178.361548 489.863784 
L 179.580221 489.826048 
L 180.798894 489.721064 
L 182.626904 490.053888 
L 183.236241 489.865058 
L 183.845577 489.832821 
L 184.454914 490.151189 
L 185.064251 489.806162 
L 186.89226 490.32118 
L 188.110934 490.352416 
L 191.157617 490.301703 
L 191.766953 484.70732 
L 192.37629 485.414418 
L 192.985627 488.765225 
L 193.594963 490.521632 
L 194.813636 489.917336 
L 195.422973 489.950386 
L 196.03231 489.772217 
L 196.641646 490.032523 
L 197.250983 489.357779 
L 197.860319 480.114174 
L 198.469656 481.59457 
L 199.078993 487.355489 
L 199.688329 489.792918 
L 200.297666 490.571122 
L 200.907002 490.687732 
L 202.735012 489.75853 
L 203.344349 489.220526 
L 203.953686 489.500558 
L 204.563022 490.427107 
L 205.172359 490.325811 
L 205.781695 483.443485 
L 206.391032 480.577298 
L 207.000369 481.230773 
L 207.609705 478.534873 
L 208.219042 481.534191 
L 208.828378 486.425128 
L 209.437715 488.798934 
L 210.047052 484.815571 
L 210.656388 484.76447 
L 211.875061 488.562324 
L 212.484398 489.765559 
L 213.093735 490.323069 
L 214.921744 490.622718 
L 215.531081 490.566701 
L 216.140418 490.633551 
L 217.359091 490.217032 
L 217.968428 490.23525 
L 218.577764 490.587937 
L 219.187101 488.815504 
L 219.796437 487.739963 
L 220.405774 488.033211 
L 221.624447 490.586392 
L 222.233784 489.839086 
L 222.84312 489.490854 
L 223.452457 489.934484 
L 224.061794 490.53685 
L 224.67113 490.495141 
L 225.280467 490.088236 
L 225.889803 490.153619 
L 227.108477 490.596078 
L 227.717813 490.701632 
L 228.32715 490.396132 
L 230.15516 490.213209 
L 231.373833 490.61849 
L 231.98317 490.622722 
L 232.592506 490.172344 
L 233.201843 490.684965 
L 233.811179 487.084048 
L 235.639189 490.204049 
L 236.248526 490.639678 
L 238.685872 490.727948 
L 241.123219 490.773081 
L 241.732555 490.403561 
L 242.341892 490.528633 
L 244.169902 490.31254 
L 244.779238 490.157909 
L 245.388575 490.410003 
L 245.997912 490.02339 
L 246.607248 483.938896 
L 247.216585 483.216907 
L 247.825921 486.146665 
L 248.435258 488.498114 
L 249.044595 490.18058 
L 249.653931 490.670774 
L 250.872604 490.828439 
L 252.700614 490.838899 
L 253.309951 489.57909 
L 253.919287 489.111163 
L 255.137961 490.008811 
L 255.747297 490.517063 
L 256.356634 490.851351 
L 257.575307 490.885545 
L 258.79398 490.78851 
L 259.403317 490.479936 
L 260.012654 490.450912 
L 260.62199 490.885312 
L 261.840663 491.007836 
L 263.059337 491.003009 
L 265.496683 491.077163 
L 266.715356 490.847632 
L 268.543366 491.122624 
L 269.152703 491.112653 
L 269.762039 490.703012 
L 270.371376 490.103358 
L 272.199386 491.173862 
L 277.074079 491.068174 
L 278.902088 491.201034 
L 279.511425 491.091783 
L 280.120762 490.085046 
L 280.730098 488.852148 
L 281.339435 488.281823 
L 281.948771 489.379138 
L 282.558108 490.928515 
L 283.167445 491.215255 
L 284.995455 491.161043 
L 286.214128 491.099127 
L 286.823464 491.252072 
L 291.088821 491.286105 
L 291.698157 491.174645 
L 292.91683 491.193042 
L 293.526167 491.163633 
L 294.135504 490.696233 
L 296.57285 491.3419 
L 297.791523 490.779108 
L 299.619533 491.427222 
L 302.666216 491.397663 
L 303.275553 491.200707 
L 303.884889 491.21406 
L 304.494226 491.363763 
L 305.103563 491.112394 
L 306.322236 491.337982 
L 306.931572 491.16658 
L 308.150246 491.505899 
L 313.634275 491.465505 
L 314.243612 491.50434 
L 315.462285 491.30889 
L 317.899631 491.476828 
L 318.508968 491.254993 
L 320.336978 491.515277 
L 320.946314 491.444275 
L 321.555651 491.225139 
L 322.164988 491.499317 
L 325.211671 491.530422 
L 327.039681 491.225245 
L 329.477027 491.383411 
L 330.6957 491.555078 
L 331.305037 491.579977 
L 331.914373 489.712907 
L 332.52371 490.067423 
L 333.742383 491.497108 
L 334.35172 491.658648 
L 334.961057 491.438591 
L 335.570393 491.453679 
L 336.17973 491.093452 
L 337.398403 491.705057 
L 338.00774 491.60488 
L 338.617076 491.198657 
L 339.226413 483.24311 
L 339.835749 483.565719 
L 340.445086 489.956903 
L 341.054423 491.599996 
L 341.663759 491.292996 
L 342.273096 490.843194 
L 342.882432 491.193979 
L 343.491769 491.729369 
L 348.366462 491.681158 
L 349.585135 491.707829 
L 350.194472 491.575022 
L 351.413145 491.799921 
L 352.631818 491.679928 
L 353.241155 491.517503 
L 353.850491 491.554403 
L 354.459828 491.473058 
L 355.069165 491.842572 
L 355.678501 491.916555 
L 356.287838 491.753975 
L 358.115848 491.644867 
L 358.725184 491.390584 
L 359.334521 489.287287 
L 359.943857 478.148071 
L 360.553194 477.953699 
L 361.771867 488.174613 
L 362.381204 490.338028 
L 362.990541 491.394714 
L 363.599877 491.665814 
L 364.81855 491.816981 
L 365.427887 491.856044 
L 366.037224 491.650534 
L 367.255897 491.639919 
L 367.865233 491.84764 
L 369.083907 491.914631 
L 370.30258 491.632836 
L 370.911916 491.6443 
L 371.521253 491.872497 
L 372.13059 491.89002 
L 372.739926 491.793985 
L 373.349263 491.814853 
L 373.9586 491.637542 
L 375.177273 491.975014 
L 377.005283 491.959586 
L 377.614619 491.040959 
L 378.223956 491.257925 
L 378.833292 491.661524 
L 379.442629 491.810564 
L 380.661302 491.859842 
L 381.270639 491.542021 
L 381.879975 491.572156 
L 382.489312 491.71443 
L 383.098649 491.705938 
L 383.707985 491.977367 
L 386.754668 492.075781 
L 387.364005 490.794876 
L 387.973342 489.79249 
L 388.582678 490.253095 
L 389.192015 491.224002 
L 389.801351 491.807306 
L 390.410688 492.049802 
L 391.020025 491.74785 
L 391.629361 491.279606 
L 392.238698 491.557315 
L 392.848034 491.691647 
L 393.457371 491.597512 
L 395.894717 492.142843 
L 396.504054 492.10437 
L 397.113391 492.217612 
L 397.722727 492.086672 
L 398.9414 492.161899 
L 399.550737 492.249508 
L 400.160074 492.160168 
L 401.378747 492.289282 
L 403.206757 492.130803 
L 403.816093 492.188223 
L 404.42543 491.900476 
L 405.034767 491.364469 
L 405.644103 491.222546 
L 406.25344 491.701118 
L 406.862776 491.897454 
L 407.472113 492.276003 
L 408.08145 491.716644 
L 409.300123 492.15448 
L 409.909459 491.563651 
L 410.518796 492.036185 
L 411.128133 492.221442 
L 411.737469 492.095384 
L 412.956143 492.129088 
L 413.565479 491.76286 
L 414.174816 492.257507 
L 419.049509 492.407003 
L 420.877518 492.296466 
L 422.096192 491.741109 
L 422.705528 491.74047 
L 423.314865 491.291411 
L 424.533538 491.373155 
L 425.142875 491.573681 
L 425.752211 491.433138 
L 426.361548 491.85213 
L 427.580221 492.318928 
L 428.189558 492.466125 
L 428.798894 492.352061 
L 429.408231 486.441818 
L 430.017568 485.662128 
L 430.626904 489.256469 
L 431.236241 491.676582 
L 431.845577 492.287922 
L 433.064251 491.886377 
L 433.673587 492.084418 
L 435.501597 492.310813 
L 436.110934 492.44041 
L 437.329607 492.408929 
L 437.938943 492.097358 
L 438.54828 491.417115 
L 439.157617 489.377912 
L 439.766953 490.326452 
L 440.37629 491.558025 
L 440.985627 492.191428 
L 441.594963 492.261954 
L 442.2043 492.21126 
L 443.422973 491.690311 
L 444.03231 492.241706 
L 445.250983 492.091388 
L 445.860319 492.436241 
L 446.469656 492.367155 
L 447.078993 492.46888 
L 447.688329 492.427282 
L 448.297666 491.451418 
L 448.907002 492.197972 
L 450.125676 492.568539 
L 451.953686 492.549378 
L 452.563022 492.421151 
L 454.391032 492.368271 
L 455.000369 492.201037 
L 455.609705 491.911018 
L 456.219042 492.413152 
L 456.828378 492.592845 
L 458.047052 492.490373 
L 458.656388 492.209138 
L 459.265725 492.143463 
L 459.875061 492.491895 
L 460.484398 492.602441 
L 461.093735 492.562272 
L 461.703071 492.366367 
L 462.312408 492.497602 
L 462.921744 492.748377 
L 464.749754 492.831263 
L 465.968428 492.572085 
L 467.796437 492.434402 
L 468.405774 492.305691 
L 469.015111 492.810218 
L 469.624447 492.910623 
L 470.233784 492.165586 
L 472.061794 492.982827 
L 472.67113 492.963228 
L 473.889803 491.56017 
L 474.49914 492.080113 
L 475.717813 492.794931 
L 476.32715 492.858838 
L 476.936486 492.666456 
L 477.545823 492.707712 
L 479.373833 493.113809 
L 479.98317 492.954513 
L 482.420516 493.113314 
L 483.029853 491.634598 
L 484.248526 492.332085 
L 484.857862 492.9455 
L 485.467199 493.098977 
L 486.685872 492.926972 
L 487.295209 492.777723 
L 488.513882 493.023471 
L 489.732555 493.055406 
L 490.341892 492.994758 
L 490.951229 491.774691 
L 491.560565 491.787311 
L 492.169902 493.073834 
L 493.388575 493.065317 
L 493.997912 492.7184 
L 494.607248 492.686622 
L 495.216585 493.2154 
L 495.825921 493.149144 
L 497.044595 493.147269 
L 498.263268 492.999499 
L 498.872604 492.757506 
L 499.481941 492.664537 
L 500.091278 492.201918 
L 500.700614 492.124989 
L 501.309951 492.544969 
L 501.919287 492.764449 
L 502.528624 492.685606 
L 503.137961 492.272742 
L 504.356634 493.255189 
L 504.965971 492.94388 
L 505.575307 491.558069 
L 506.184644 492.341694 
L 506.79398 493.370462 
L 507.403317 489.383711 
L 508.012654 487.997807 
L 508.62199 490.392968 
L 509.231327 492.218514 
L 509.840663 493.359681 
L 510.45 493.488535 
L 511.668673 493.471075 
L 512.27801 493.028281 
L 512.887346 492.854364 
L 513.496683 492.834081 
L 514.10602 491.660104 
L 514.715356 492.315636 
L 515.324693 492.342436 
L 515.934029 493.0497 
L 517.152703 493.117358 
L 520.199386 493.5064 
L 521.418059 493.409967 
L 522.027396 493.309931 
L 522.636732 492.670284 
L 523.246069 493.144882 
L 523.855405 491.655028 
L 524.464742 489.566795 
L 525.683415 493.630123 
L 526.902088 493.54223 
L 527.511425 493.681987 
L 529.339435 493.667914 
L 529.948771 493.241739 
L 530.558108 493.306867 
L 531.167445 493.614137 
L 532.386118 493.7676 
L 532.995455 493.764142 
L 533.604791 493.630131 
L 534.214128 493.213977 
L 534.823464 493.232865 
L 536.651474 493.7537 
L 537.260811 493.551969 
L 537.870147 493.570101 
L 538.479484 493.766224 
L 540.307494 493.709524 
L 540.91683 493.436361 
L 542.135504 493.723339 
L 543.354177 493.769349 
L 544.57285 493.495061 
L 545.791523 493.753234 
L 546.40086 492.358312 
L 547.010197 492.989712 
L 547.619533 493.88438 
L 548.22887 493.568426 
L 548.838206 493.717239 
L 550.05688 493.502538 
L 550.666216 493.956047 
L 551.275553 493.696458 
L 551.884889 492.987316 
L 552.494226 493.054989 
L 553.103563 493.454069 
L 553.712899 493.501694 
L 554.322236 493.661059 
L 555.540909 493.74365 
L 556.150246 493.449451 
L 556.759582 492.006605 
L 557.368919 492.212353 
L 557.978256 493.626066 
L 559.196929 493.706472 
L 560.415602 493.873745 
L 561.634275 493.314024 
L 562.243612 490.846862 
L 562.852948 491.309862 
L 563.462285 492.22044 
L 564.071622 493.471867 
L 564.680958 493.888366 
L 565.899631 493.988337 
L 566.508968 493.807969 
L 568.946314 493.524423 
L 569.555651 493.113766 
L 570.164988 493.389303 
L 570.774324 493.894355 
L 571.383661 494.070758 
L 571.992998 493.919687 
L 573.211671 493.228986 
L 573.821007 492.210275 
L 575.039681 493.219905 
L 575.649017 493.561607 
L 576.258354 493.347581 
L 576.86769 493.64527 
L 577.477027 492.98834 
L 579.305037 493.171043 
L 579.914373 493.532645 
L 580.52371 493.362769 
L 581.742383 493.971099 
L 582.961057 494.019628 
L 584.17973 494.030521 
L 584.789066 493.803524 
L 585.398403 493.87676 
L 586.00774 493.755809 
L 589.054423 493.991236 
L 589.663759 493.670986 
L 590.273096 493.5639 
L 591.491769 493.620062 
L 592.710442 493.288082 
L 593.929115 493.351749 
L 594.538452 493.472176 
L 595.147789 493.780838 
L 598.194472 493.397044 
L 598.803808 493.750865 
L 599.413145 493.834848 
L 600.022482 494.184267 
L 601.850491 493.959419 
L 602.459828 493.860331 
L 603.678501 494.04211 
L 604.287838 494.116141 
L 606.115848 493.129453 
L 606.725184 493.690741 
L 607.943857 493.681865 
L 609.162531 494.155329 
L 609.771867 494.001212 
L 610.381204 493.269926 
L 610.990541 493.64886 
L 611.599877 494.166188 
L 612.81855 494.090615 
L 614.037224 493.927168 
L 614.64656 493.28787 
L 615.865233 492.831838 
L 616.47457 492.298075 
L 617.693243 493.181614 
L 618.30258 493.804249 
L 618.911916 493.705057 
L 619.521253 493.103165 
L 620.13059 493.07285 
L 620.739926 492.824043 
L 621.349263 493.035528 
L 621.9586 490.754428 
L 622.567936 491.189641 
L 623.177273 493.161069 
L 623.786609 493.987681 
L 624.395946 494.006969 
L 625.005283 493.903553 
L 625.614619 493.684895 
L 626.223956 493.805995 
L 626.833292 493.795467 
L 627.442629 494.085373 
L 629.270639 494.372403 
L 629.879975 493.981325 
L 631.098649 493.924265 
L 631.707985 491.673639 
L 632.926658 494.271583 
L 633.535995 492.523827 
L 634.145332 490.109673 
L 634.754668 489.253185 
L 635.364005 491.981989 
L 635.973342 493.97537 
L 636.582678 494.447912 
L 637.801351 494.439171 
L 638.410688 494.259462 
L 639.629361 494.348722 
L 641.457371 493.044423 
L 642.066708 494.468551 
L 642.676044 494.162767 
L 643.285381 493.565494 
L 643.894717 493.723542 
L 644.504054 493.626181 
L 645.113391 494.217578 
L 645.722727 494.517443 
L 646.9414 493.918422 
L 647.550737 494.055824 
L 648.160074 494.313009 
L 649.988084 493.985144 
L 651.206757 493.408575 
L 651.816093 491.752012 
L 653.034767 494.04606 
L 653.644103 494.350985 
L 654.25344 494.247599 
L 654.862776 494.298238 
L 655.472113 493.192125 
L 656.08145 477.651651 
L 656.690786 472.583067 
L 657.300123 479.690018 
L 658.518796 491.224526 
L 659.128133 493.487953 
L 659.737469 492.344938 
L 660.956143 493.936605 
L 661.565479 493.435796 
L 662.174816 490.055303 
L 662.784152 489.525106 
L 663.393489 491.626845 
L 664.002826 493.154693 
L 664.612162 493.811528 
L 665.830835 493.973091 
L 666.440172 490.179127 
L 667.049509 490.513448 
L 667.658845 493.292451 
L 668.268182 493.384505 
L 669.486855 491.708382 
L 670.096192 491.065119 
L 670.705528 492.828388 
L 671.314865 493.494798 
L 672.533538 493.006796 
L 673.142875 493.478856 
L 673.752211 494.155247 
L 674.361548 494.218179 
L 674.970885 493.877793 
L 676.189558 492.737882 
L 677.408231 493.264862 
L 678.626904 493.4369 
L 679.236241 493.364488 
L 679.845577 493.406219 
L 680.454914 493.650887 
L 681.064251 494.12818 
L 681.673587 494.294278 
L 682.282924 494.337113 
L 684.110934 494.087568 
L 685.329607 493.353979 
L 685.938943 493.443286 
L 686.54828 493.880081 
L 687.157617 493.941557 
L 687.766953 493.825993 
L 688.37629 493.054254 
L 688.985627 491.48315 
L 689.594963 490.952769 
L 690.2043 492.286108 
L 690.813636 492.857416 
L 690.813636 492.857416 
" style="fill:none;stroke:#ff7f0e;stroke-linecap:round;stroke-width:1.5;"/>
   </g>
   <g id="patch_3">
    <path d="M 51.65 516.755625 
L 51.65 27.515625 
" style="fill:none;stroke:#cccccc;stroke-linecap:square;stroke-linejoin:miter;"/>
   </g>
   <g id="patch_4">
    <path d="M 721.25 516.755625 
L 721.25 27.515625 
" style="fill:none;stroke:#cccccc;stroke-linecap:square;stroke-linejoin:miter;"/>
   </g>
   <g id="patch_5">
    <path d="M 51.65 516.755625 
L 721.25 516.755625 
" style="fill:none;stroke:#cccccc;stroke-linecap:square;stroke-linejoin:miter;"/>
   </g>
   <g id="patch_6">
    <path d="M 51.65 27.515625 
L 721.25 27.515625 
" style="fill:none;stroke:#cccccc;stroke-linecap:square;stroke-linejoin:miter;"/>
   </g>
   <g id="text_15">
    <!-- Loss / Val Loss -->
    <g style="fill:#262626;" transform="translate(319.378125 21.515625)scale(0.2 -0.2)">
     <defs>
      <path id="ArialMT-32"/>
      <path d="M 0 -1.21875 
L 20.75 72.796875 
L 27.78125 72.796875 
L 7.078125 -1.21875 
z
" id="ArialMT-47"/>
      <path d="M 28.171875 0 
L 0.4375 71.578125 
L 10.6875 71.578125 
L 29.296875 19.578125 
Q 31.546875 13.328125 33.0625 7.859375 
Q 34.71875 13.71875 36.921875 19.578125 
L 56.25 71.578125 
L 65.921875 71.578125 
L 37.890625 0 
z
" id="ArialMT-86"/>
      <path d="M 40.4375 6.390625 
Q 35.546875 2.25 31.03125 0.53125 
Q 26.515625 -1.171875 21.34375 -1.171875 
Q 12.796875 -1.171875 8.203125 3 
Q 3.609375 7.171875 3.609375 13.671875 
Q 3.609375 17.484375 5.34375 20.625 
Q 7.078125 23.78125 9.890625 25.6875 
Q 12.703125 27.59375 16.21875 28.5625 
Q 18.796875 29.25 24.03125 29.890625 
Q 34.671875 31.15625 39.703125 32.90625 
Q 39.75 34.71875 39.75 35.203125 
Q 39.75 40.578125 37.25 42.78125 
Q 33.890625 45.75 27.25 45.75 
Q 21.046875 45.75 18.09375 43.578125 
Q 15.140625 41.40625 13.71875 35.890625 
L 5.125 37.0625 
Q 6.296875 42.578125 8.984375 45.96875 
Q 11.671875 49.359375 16.75 51.1875 
Q 21.828125 53.03125 28.515625 53.03125 
Q 35.15625 53.03125 39.296875 51.46875 
Q 43.453125 49.90625 45.40625 47.53125 
Q 47.359375 45.171875 48.140625 41.546875 
Q 48.578125 39.3125 48.578125 33.453125 
L 48.578125 21.734375 
Q 48.578125 9.46875 49.140625 6.21875 
Q 49.703125 2.984375 51.375 0 
L 42.1875 0 
Q 40.828125 2.734375 40.4375 6.390625 
z
M 39.703125 26.03125 
Q 34.90625 24.078125 25.34375 22.703125 
Q 19.921875 21.921875 17.671875 20.9375 
Q 15.4375 19.96875 14.203125 18.09375 
Q 12.984375 16.21875 12.984375 13.921875 
Q 12.984375 10.40625 15.640625 8.0625 
Q 18.3125 5.71875 23.4375 5.71875 
Q 28.515625 5.71875 32.46875 7.9375 
Q 36.421875 10.15625 38.28125 14.015625 
Q 39.703125 17 39.703125 22.796875 
z
" id="ArialMT-97"/>
      <path d="M 6.390625 0 
L 6.390625 71.578125 
L 15.1875 71.578125 
L 15.1875 0 
z
" id="ArialMT-108"/>
     </defs>
     <use xlink:href="#ArialMT-76"/>
     <use x="55.615234" xlink:href="#ArialMT-111"/>
     <use x="111.230469" xlink:href="#ArialMT-115"/>
     <use x="161.230469" xlink:href="#ArialMT-115"/>
     <use x="211.230469" xlink:href="#ArialMT-32"/>
     <use x="239.013672" xlink:href="#ArialMT-47"/>
     <use x="266.796875" xlink:href="#ArialMT-32"/>
     <use x="294.580078" xlink:href="#ArialMT-86"/>
     <use x="353.904297" xlink:href="#ArialMT-97"/>
     <use x="409.519531" xlink:href="#ArialMT-108"/>
     <use x="431.736328" xlink:href="#ArialMT-32"/>
     <use x="459.519531" xlink:href="#ArialMT-76"/>
     <use x="515.134766" xlink:href="#ArialMT-111"/>
     <use x="570.75" xlink:href="#ArialMT-115"/>
     <use x="620.75" xlink:href="#ArialMT-115"/>
    </g>
   </g>
   <g id="legend_1">
    <g id="line2d_27">
     <path d="M 611.560156 46.502344 
L 641.560156 46.502344 
" style="fill:none;stroke:#1f77b4;stroke-linecap:round;stroke-width:1.5;"/>
    </g>
    <g id="line2d_28"/>
    <g id="text_16">
     <!-- loss -->
     <g style="fill:#262626;" transform="translate(653.560156 51.752344)scale(0.15 -0.15)">
      <use xlink:href="#ArialMT-108"/>
      <use x="22.216797" xlink:href="#ArialMT-111"/>
      <use x="77.832031" xlink:href="#ArialMT-115"/>
      <use x="127.832031" xlink:href="#ArialMT-115"/>
     </g>
    </g>
    <g id="line2d_29">
     <path d="M 611.560156 67.720312 
L 641.560156 67.720312 
" style="fill:none;stroke:#ff7f0e;stroke-linecap:round;stroke-width:1.5;"/>
    </g>
    <g id="line2d_30"/>
    <g id="text_17">
     <!-- val_loss -->
     <g style="fill:#262626;" transform="translate(653.560156 72.970312)scale(0.15 -0.15)">
      <defs>
       <path d="M 21 0 
L 1.265625 51.859375 
L 10.546875 51.859375 
L 21.6875 20.796875 
Q 23.484375 15.765625 25 10.359375 
Q 26.171875 14.453125 28.265625 20.21875 
L 39.796875 51.859375 
L 48.828125 51.859375 
L 29.203125 0 
z
" id="ArialMT-118"/>
       <path d="M -1.515625 -19.875 
L -1.515625 -13.53125 
L 56.734375 -13.53125 
L 56.734375 -19.875 
z
" id="ArialMT-95"/>
      </defs>
      <use xlink:href="#ArialMT-118"/>
      <use x="50" xlink:href="#ArialMT-97"/>
      <use x="105.615234" xlink:href="#ArialMT-108"/>
      <use x="127.832031" xlink:href="#ArialMT-95"/>
      <use x="183.447266" xlink:href="#ArialMT-108"/>
      <use x="205.664062" xlink:href="#ArialMT-111"/>
      <use x="261.279297" xlink:href="#ArialMT-115"/>
      <use x="311.279297" xlink:href="#ArialMT-115"/>
     </g>
    </g>
   </g>
  </g>
 </g>
 <defs>
  <clipPath id="pf5f7bd512a">
   <rect height="489.24" width="669.6" x="51.65" y="27.515625"/>
  </clipPath>
 </defs>
</svg>
