<?xml version="1.0" encoding="utf-8" standalone="no"?>
<!DOCTYPE svg PUBLIC "-//W3C//DTD SVG 1.1//EN"
  "http://www.w3.org/Graphics/SVG/1.1/DTD/svg11.dtd">
<!-- Created with matplotlib (https://matplotlib.org/) -->
<svg height="516.285312pt" version="1.1" viewBox="0 0 1658.34375 516.285312" width="1658.34375pt" xmlns="http://www.w3.org/2000/svg" xmlns:xlink="http://www.w3.org/1999/xlink">
 <metadata>
  <rdf:RDF xmlns:cc="http://creativecommons.org/ns#" xmlns:dc="http://purl.org/dc/elements/1.1/" xmlns:rdf="http://www.w3.org/1999/02/22-rdf-syntax-ns#">
   <cc:Work>
    <dc:type rdf:resource="http://purl.org/dc/dcmitype/StillImage"/>
    <dc:date>2021-01-14T14:39:36.385028</dc:date>
    <dc:format>image/svg+xml</dc:format>
    <dc:creator>
     <cc:Agent>
      <dc:title>Matplotlib v3.3.2, https://matplotlib.org/</dc:title>
     </cc:Agent>
    </dc:creator>
   </cc:Work>
  </rdf:RDF>
 </metadata>
 <defs>
  <style type="text/css">*{stroke-linecap:butt;stroke-linejoin:round;}</style>
 </defs>
 <g id="figure_1">
  <g id="patch_1">
   <path d="M 0 516.285312 
L 1658.34375 516.285312 
L 1658.34375 0 
L 0 0 
z
" style="fill:#ffffff;"/>
  </g>
  <g id="axes_1">
   <g id="patch_2">
    <path d="M 32.94375 496.44 
L 1651.14375 496.44 
L 1651.14375 7.2 
L 32.94375 7.2 
z
" style="fill:#ffffff;"/>
   </g>
   <g id="matplotlib.axis_1">
    <g id="xtick_1">
     <g id="line2d_1">
      <path clip-path="url(#pad801dba27)" d="M 106.498295 496.44 
L 106.498295 7.2 
" style="fill:none;stroke:#cccccc;stroke-linecap:round;stroke-width:0.8;"/>
     </g>
     <g id="line2d_2"/>
     <g id="text_1">
      <!-- 2020-01 -->
      <g style="fill:#262626;" transform="translate(88.150639 507.097812)scale(0.1 -0.1)">
       <defs>
        <path d="M 50.34375 8.453125 
L 50.34375 0 
L 3.03125 0 
Q 2.9375 3.171875 4.046875 6.109375 
Q 5.859375 10.9375 9.828125 15.625 
Q 13.8125 20.3125 21.34375 26.46875 
Q 33.015625 36.03125 37.109375 41.625 
Q 41.21875 47.21875 41.21875 52.203125 
Q 41.21875 57.421875 37.46875 61 
Q 33.734375 64.59375 27.734375 64.59375 
Q 21.390625 64.59375 17.578125 60.78125 
Q 13.765625 56.984375 13.71875 50.25 
L 4.6875 51.171875 
Q 5.609375 61.28125 11.65625 66.578125 
Q 17.71875 71.875 27.9375 71.875 
Q 38.234375 71.875 44.234375 66.15625 
Q 50.25 60.453125 50.25 52 
Q 50.25 47.703125 48.484375 43.546875 
Q 46.734375 39.40625 42.65625 34.8125 
Q 38.578125 30.21875 29.109375 22.21875 
Q 21.1875 15.578125 18.9375 13.203125 
Q 16.703125 10.84375 15.234375 8.453125 
z
" id="ArialMT-50"/>
        <path d="M 4.15625 35.296875 
Q 4.15625 48 6.765625 55.734375 
Q 9.375 63.484375 14.515625 67.671875 
Q 19.671875 71.875 27.484375 71.875 
Q 33.25 71.875 37.59375 69.546875 
Q 41.9375 67.234375 44.765625 62.859375 
Q 47.609375 58.5 49.21875 52.21875 
Q 50.828125 45.953125 50.828125 35.296875 
Q 50.828125 22.703125 48.234375 14.96875 
Q 45.65625 7.234375 40.5 3 
Q 35.359375 -1.21875 27.484375 -1.21875 
Q 17.140625 -1.21875 11.234375 6.203125 
Q 4.15625 15.140625 4.15625 35.296875 
z
M 13.1875 35.296875 
Q 13.1875 17.671875 17.3125 11.828125 
Q 21.4375 6 27.484375 6 
Q 33.546875 6 37.671875 11.859375 
Q 41.796875 17.71875 41.796875 35.296875 
Q 41.796875 52.984375 37.671875 58.78125 
Q 33.546875 64.59375 27.390625 64.59375 
Q 21.34375 64.59375 17.71875 59.46875 
Q 13.1875 52.9375 13.1875 35.296875 
z
" id="ArialMT-48"/>
        <path d="M 3.171875 21.484375 
L 3.171875 30.328125 
L 30.171875 30.328125 
L 30.171875 21.484375 
z
" id="ArialMT-45"/>
        <path d="M 37.25 0 
L 28.46875 0 
L 28.46875 56 
Q 25.296875 52.984375 20.140625 49.953125 
Q 14.984375 46.921875 10.890625 45.40625 
L 10.890625 53.90625 
Q 18.265625 57.375 23.78125 62.296875 
Q 29.296875 67.234375 31.59375 71.875 
L 37.25 71.875 
z
" id="ArialMT-49"/>
       </defs>
       <use xlink:href="#ArialMT-50"/>
       <use x="55.615234" xlink:href="#ArialMT-48"/>
       <use x="111.230469" xlink:href="#ArialMT-50"/>
       <use x="166.845703" xlink:href="#ArialMT-48"/>
       <use x="222.460938" xlink:href="#ArialMT-45"/>
       <use x="255.761719" xlink:href="#ArialMT-48"/>
       <use x="311.376953" xlink:href="#ArialMT-49"/>
      </g>
     </g>
    </g>
    <g id="xtick_2">
     <g id="line2d_3">
      <path clip-path="url(#pad801dba27)" d="M 339.388677 496.44 
L 339.388677 7.2 
" style="fill:none;stroke:#cccccc;stroke-linecap:round;stroke-width:0.8;"/>
     </g>
     <g id="line2d_4"/>
     <g id="text_2">
      <!-- 2020-03 -->
      <g style="fill:#262626;" transform="translate(321.041021 507.097812)scale(0.1 -0.1)">
       <defs>
        <path d="M 4.203125 18.890625 
L 12.984375 20.0625 
Q 14.5 12.59375 18.140625 9.296875 
Q 21.78125 6 27 6 
Q 33.203125 6 37.46875 10.296875 
Q 41.75 14.59375 41.75 20.953125 
Q 41.75 27 37.796875 30.921875 
Q 33.84375 34.859375 27.734375 34.859375 
Q 25.25 34.859375 21.53125 33.890625 
L 22.515625 41.609375 
Q 23.390625 41.5 23.921875 41.5 
Q 29.546875 41.5 34.03125 44.421875 
Q 38.53125 47.359375 38.53125 53.46875 
Q 38.53125 58.296875 35.25 61.46875 
Q 31.984375 64.65625 26.8125 64.65625 
Q 21.6875 64.65625 18.265625 61.421875 
Q 14.84375 58.203125 13.875 51.765625 
L 5.078125 53.328125 
Q 6.6875 62.15625 12.390625 67.015625 
Q 18.109375 71.875 26.609375 71.875 
Q 32.46875 71.875 37.390625 69.359375 
Q 42.328125 66.84375 44.9375 62.5 
Q 47.5625 58.15625 47.5625 53.265625 
Q 47.5625 48.640625 45.0625 44.828125 
Q 42.578125 41.015625 37.703125 38.765625 
Q 44.046875 37.3125 47.5625 32.6875 
Q 51.078125 28.078125 51.078125 21.140625 
Q 51.078125 11.765625 44.234375 5.25 
Q 37.40625 -1.265625 26.953125 -1.265625 
Q 17.53125 -1.265625 11.296875 4.34375 
Q 5.078125 9.96875 4.203125 18.890625 
z
" id="ArialMT-51"/>
       </defs>
       <use xlink:href="#ArialMT-50"/>
       <use x="55.615234" xlink:href="#ArialMT-48"/>
       <use x="111.230469" xlink:href="#ArialMT-50"/>
       <use x="166.845703" xlink:href="#ArialMT-48"/>
       <use x="222.460938" xlink:href="#ArialMT-45"/>
       <use x="255.761719" xlink:href="#ArialMT-48"/>
       <use x="311.376953" xlink:href="#ArialMT-51"/>
      </g>
     </g>
    </g>
    <g id="xtick_3">
     <g id="line2d_5">
      <path clip-path="url(#pad801dba27)" d="M 576.160565 496.44 
L 576.160565 7.2 
" style="fill:none;stroke:#cccccc;stroke-linecap:round;stroke-width:0.8;"/>
     </g>
     <g id="line2d_6"/>
     <g id="text_3">
      <!-- 2020-05 -->
      <g style="fill:#262626;" transform="translate(557.812908 507.097812)scale(0.1 -0.1)">
       <defs>
        <path d="M 4.15625 18.75 
L 13.375 19.53125 
Q 14.40625 12.796875 18.140625 9.390625 
Q 21.875 6 27.15625 6 
Q 33.5 6 37.890625 10.78125 
Q 42.28125 15.578125 42.28125 23.484375 
Q 42.28125 31 38.0625 35.34375 
Q 33.84375 39.703125 27 39.703125 
Q 22.75 39.703125 19.328125 37.765625 
Q 15.921875 35.84375 13.96875 32.765625 
L 5.71875 33.84375 
L 12.640625 70.609375 
L 48.25 70.609375 
L 48.25 62.203125 
L 19.671875 62.203125 
L 15.828125 42.96875 
Q 22.265625 47.46875 29.34375 47.46875 
Q 38.71875 47.46875 45.15625 40.96875 
Q 51.609375 34.46875 51.609375 24.265625 
Q 51.609375 14.546875 45.953125 7.46875 
Q 39.0625 -1.21875 27.15625 -1.21875 
Q 17.390625 -1.21875 11.203125 4.25 
Q 5.03125 9.71875 4.15625 18.75 
z
" id="ArialMT-53"/>
       </defs>
       <use xlink:href="#ArialMT-50"/>
       <use x="55.615234" xlink:href="#ArialMT-48"/>
       <use x="111.230469" xlink:href="#ArialMT-50"/>
       <use x="166.845703" xlink:href="#ArialMT-48"/>
       <use x="222.460938" xlink:href="#ArialMT-45"/>
       <use x="255.761719" xlink:href="#ArialMT-48"/>
       <use x="311.376953" xlink:href="#ArialMT-53"/>
      </g>
     </g>
    </g>
    <g id="xtick_4">
     <g id="line2d_7">
      <path clip-path="url(#pad801dba27)" d="M 812.932452 496.44 
L 812.932452 7.2 
" style="fill:none;stroke:#cccccc;stroke-linecap:round;stroke-width:0.8;"/>
     </g>
     <g id="line2d_8"/>
     <g id="text_4">
      <!-- 2020-07 -->
      <g style="fill:#262626;" transform="translate(794.584796 507.097812)scale(0.1 -0.1)">
       <defs>
        <path d="M 4.734375 62.203125 
L 4.734375 70.65625 
L 51.078125 70.65625 
L 51.078125 63.8125 
Q 44.234375 56.546875 37.515625 44.484375 
Q 30.8125 32.421875 27.15625 19.671875 
Q 24.515625 10.6875 23.78125 0 
L 14.75 0 
Q 14.890625 8.453125 18.0625 20.40625 
Q 21.234375 32.375 27.171875 43.484375 
Q 33.109375 54.59375 39.796875 62.203125 
z
" id="ArialMT-55"/>
       </defs>
       <use xlink:href="#ArialMT-50"/>
       <use x="55.615234" xlink:href="#ArialMT-48"/>
       <use x="111.230469" xlink:href="#ArialMT-50"/>
       <use x="166.845703" xlink:href="#ArialMT-48"/>
       <use x="222.460938" xlink:href="#ArialMT-45"/>
       <use x="255.761719" xlink:href="#ArialMT-48"/>
       <use x="311.376953" xlink:href="#ArialMT-55"/>
      </g>
     </g>
    </g>
    <g id="xtick_5">
     <g id="line2d_9">
      <path clip-path="url(#pad801dba27)" d="M 1053.585846 496.44 
L 1053.585846 7.2 
" style="fill:none;stroke:#cccccc;stroke-linecap:round;stroke-width:0.8;"/>
     </g>
     <g id="line2d_10"/>
     <g id="text_5">
      <!-- 2020-09 -->
      <g style="fill:#262626;" transform="translate(1035.23819 507.097812)scale(0.1 -0.1)">
       <defs>
        <path d="M 5.46875 16.546875 
L 13.921875 17.328125 
Q 14.984375 11.375 18.015625 8.6875 
Q 21.046875 6 25.78125 6 
Q 29.828125 6 32.875 7.859375 
Q 35.9375 9.71875 37.890625 12.8125 
Q 39.84375 15.921875 41.15625 21.1875 
Q 42.484375 26.46875 42.484375 31.9375 
Q 42.484375 32.515625 42.4375 33.6875 
Q 39.796875 29.5 35.234375 26.875 
Q 30.671875 24.265625 25.34375 24.265625 
Q 16.453125 24.265625 10.296875 30.703125 
Q 4.15625 37.15625 4.15625 47.703125 
Q 4.15625 58.59375 10.578125 65.234375 
Q 17 71.875 26.65625 71.875 
Q 33.640625 71.875 39.421875 68.109375 
Q 45.21875 64.359375 48.21875 57.390625 
Q 51.21875 50.4375 51.21875 37.25 
Q 51.21875 23.53125 48.234375 15.40625 
Q 45.265625 7.28125 39.375 3.03125 
Q 33.5 -1.21875 25.59375 -1.21875 
Q 17.1875 -1.21875 11.859375 3.4375 
Q 6.546875 8.109375 5.46875 16.546875 
z
M 41.453125 48.140625 
Q 41.453125 55.71875 37.421875 60.15625 
Q 33.40625 64.59375 27.734375 64.59375 
Q 21.875 64.59375 17.53125 59.8125 
Q 13.1875 55.03125 13.1875 47.40625 
Q 13.1875 40.578125 17.3125 36.296875 
Q 21.4375 32.03125 27.484375 32.03125 
Q 33.59375 32.03125 37.515625 36.296875 
Q 41.453125 40.578125 41.453125 48.140625 
z
" id="ArialMT-57"/>
       </defs>
       <use xlink:href="#ArialMT-50"/>
       <use x="55.615234" xlink:href="#ArialMT-48"/>
       <use x="111.230469" xlink:href="#ArialMT-50"/>
       <use x="166.845703" xlink:href="#ArialMT-48"/>
       <use x="222.460938" xlink:href="#ArialMT-45"/>
       <use x="255.761719" xlink:href="#ArialMT-48"/>
       <use x="311.376953" xlink:href="#ArialMT-57"/>
      </g>
     </g>
    </g>
    <g id="xtick_6">
     <g id="line2d_11">
      <path clip-path="url(#pad801dba27)" d="M 1290.357734 496.44 
L 1290.357734 7.2 
" style="fill:none;stroke:#cccccc;stroke-linecap:round;stroke-width:0.8;"/>
     </g>
     <g id="line2d_12"/>
     <g id="text_6">
      <!-- 2020-11 -->
      <g style="fill:#262626;" transform="translate(1272.378828 507.097812)scale(0.1 -0.1)">
       <use xlink:href="#ArialMT-50"/>
       <use x="55.615234" xlink:href="#ArialMT-48"/>
       <use x="111.230469" xlink:href="#ArialMT-50"/>
       <use x="166.845703" xlink:href="#ArialMT-48"/>
       <use x="222.460938" xlink:href="#ArialMT-45"/>
       <use x="255.761719" xlink:href="#ArialMT-49"/>
       <use x="304.001953" xlink:href="#ArialMT-49"/>
      </g>
     </g>
    </g>
    <g id="xtick_7">
     <g id="line2d_13">
      <path clip-path="url(#pad801dba27)" d="M 1527.129622 496.44 
L 1527.129622 7.2 
" style="fill:none;stroke:#cccccc;stroke-linecap:round;stroke-width:0.8;"/>
     </g>
     <g id="line2d_14"/>
     <g id="text_7">
      <!-- 2021-01 -->
      <g style="fill:#262626;" transform="translate(1508.781966 507.097812)scale(0.1 -0.1)">
       <use xlink:href="#ArialMT-50"/>
       <use x="55.615234" xlink:href="#ArialMT-48"/>
       <use x="111.230469" xlink:href="#ArialMT-50"/>
       <use x="166.845703" xlink:href="#ArialMT-49"/>
       <use x="222.460938" xlink:href="#ArialMT-45"/>
       <use x="255.761719" xlink:href="#ArialMT-48"/>
       <use x="311.376953" xlink:href="#ArialMT-49"/>
      </g>
     </g>
    </g>
   </g>
   <g id="matplotlib.axis_2">
    <g id="ytick_1">
     <g id="line2d_15">
      <path clip-path="url(#pad801dba27)" d="M 32.94375 474.201818 
L 1651.14375 474.201818 
" style="fill:none;stroke:#cccccc;stroke-linecap:round;stroke-width:0.8;"/>
     </g>
     <g id="line2d_16"/>
     <g id="text_8">
      <!-- 0 -->
      <g style="fill:#262626;" transform="translate(23.882813 477.780724)scale(0.1 -0.1)">
       <use xlink:href="#ArialMT-48"/>
      </g>
     </g>
    </g>
    <g id="ytick_2">
     <g id="line2d_17">
      <path clip-path="url(#pad801dba27)" d="M 32.94375 402.465748 
L 1651.14375 402.465748 
" style="fill:none;stroke:#cccccc;stroke-linecap:round;stroke-width:0.8;"/>
     </g>
     <g id="line2d_18"/>
     <g id="text_9">
      <!-- 200 -->
      <g style="fill:#262626;" transform="translate(12.760938 406.044654)scale(0.1 -0.1)">
       <use xlink:href="#ArialMT-50"/>
       <use x="55.615234" xlink:href="#ArialMT-48"/>
       <use x="111.230469" xlink:href="#ArialMT-48"/>
      </g>
     </g>
    </g>
    <g id="ytick_3">
     <g id="line2d_19">
      <path clip-path="url(#pad801dba27)" d="M 32.94375 330.729677 
L 1651.14375 330.729677 
" style="fill:none;stroke:#cccccc;stroke-linecap:round;stroke-width:0.8;"/>
     </g>
     <g id="line2d_20"/>
     <g id="text_10">
      <!-- 400 -->
      <g style="fill:#262626;" transform="translate(12.760938 334.308584)scale(0.1 -0.1)">
       <defs>
        <path d="M 32.328125 0 
L 32.328125 17.140625 
L 1.265625 17.140625 
L 1.265625 25.203125 
L 33.9375 71.578125 
L 41.109375 71.578125 
L 41.109375 25.203125 
L 50.78125 25.203125 
L 50.78125 17.140625 
L 41.109375 17.140625 
L 41.109375 0 
z
M 32.328125 25.203125 
L 32.328125 57.46875 
L 9.90625 25.203125 
z
" id="ArialMT-52"/>
       </defs>
       <use xlink:href="#ArialMT-52"/>
       <use x="55.615234" xlink:href="#ArialMT-48"/>
       <use x="111.230469" xlink:href="#ArialMT-48"/>
      </g>
     </g>
    </g>
    <g id="ytick_4">
     <g id="line2d_21">
      <path clip-path="url(#pad801dba27)" d="M 32.94375 258.993607 
L 1651.14375 258.993607 
" style="fill:none;stroke:#cccccc;stroke-linecap:round;stroke-width:0.8;"/>
     </g>
     <g id="line2d_22"/>
     <g id="text_11">
      <!-- 600 -->
      <g style="fill:#262626;" transform="translate(12.760938 262.572513)scale(0.1 -0.1)">
       <defs>
        <path d="M 49.75 54.046875 
L 41.015625 53.375 
Q 39.84375 58.546875 37.703125 60.890625 
Q 34.125 64.65625 28.90625 64.65625 
Q 24.703125 64.65625 21.53125 62.3125 
Q 17.390625 59.28125 14.984375 53.46875 
Q 12.59375 47.65625 12.5 36.921875 
Q 15.671875 41.75 20.265625 44.09375 
Q 24.859375 46.4375 29.890625 46.4375 
Q 38.671875 46.4375 44.84375 39.96875 
Q 51.03125 33.5 51.03125 23.25 
Q 51.03125 16.5 48.125 10.71875 
Q 45.21875 4.9375 40.140625 1.859375 
Q 35.0625 -1.21875 28.609375 -1.21875 
Q 17.625 -1.21875 10.6875 6.859375 
Q 3.765625 14.9375 3.765625 33.5 
Q 3.765625 54.25 11.421875 63.671875 
Q 18.109375 71.875 29.4375 71.875 
Q 37.890625 71.875 43.28125 67.140625 
Q 48.6875 62.40625 49.75 54.046875 
z
M 13.875 23.1875 
Q 13.875 18.65625 15.796875 14.5 
Q 17.71875 10.359375 21.1875 8.171875 
Q 24.65625 6 28.46875 6 
Q 34.03125 6 38.03125 10.484375 
Q 42.046875 14.984375 42.046875 22.703125 
Q 42.046875 30.125 38.078125 34.390625 
Q 34.125 38.671875 28.125 38.671875 
Q 22.171875 38.671875 18.015625 34.390625 
Q 13.875 30.125 13.875 23.1875 
z
" id="ArialMT-54"/>
       </defs>
       <use xlink:href="#ArialMT-54"/>
       <use x="55.615234" xlink:href="#ArialMT-48"/>
       <use x="111.230469" xlink:href="#ArialMT-48"/>
      </g>
     </g>
    </g>
    <g id="ytick_5">
     <g id="line2d_23">
      <path clip-path="url(#pad801dba27)" d="M 32.94375 187.257537 
L 1651.14375 187.257537 
" style="fill:none;stroke:#cccccc;stroke-linecap:round;stroke-width:0.8;"/>
     </g>
     <g id="line2d_24"/>
     <g id="text_12">
      <!-- 800 -->
      <g style="fill:#262626;" transform="translate(12.760938 190.836443)scale(0.1 -0.1)">
       <defs>
        <path d="M 17.671875 38.8125 
Q 12.203125 40.828125 9.5625 44.53125 
Q 6.9375 48.25 6.9375 53.421875 
Q 6.9375 61.234375 12.546875 66.546875 
Q 18.171875 71.875 27.484375 71.875 
Q 36.859375 71.875 42.578125 66.421875 
Q 48.296875 60.984375 48.296875 53.171875 
Q 48.296875 48.1875 45.671875 44.5 
Q 43.0625 40.828125 37.75 38.8125 
Q 44.34375 36.671875 47.78125 31.875 
Q 51.21875 27.09375 51.21875 20.453125 
Q 51.21875 11.28125 44.71875 5.03125 
Q 38.234375 -1.21875 27.640625 -1.21875 
Q 17.046875 -1.21875 10.546875 5.046875 
Q 4.046875 11.328125 4.046875 20.703125 
Q 4.046875 27.6875 7.59375 32.390625 
Q 11.140625 37.109375 17.671875 38.8125 
z
M 15.921875 53.71875 
Q 15.921875 48.640625 19.1875 45.40625 
Q 22.46875 42.1875 27.6875 42.1875 
Q 32.765625 42.1875 36.015625 45.375 
Q 39.265625 48.578125 39.265625 53.21875 
Q 39.265625 58.0625 35.90625 61.359375 
Q 32.5625 64.65625 27.59375 64.65625 
Q 22.5625 64.65625 19.234375 61.421875 
Q 15.921875 58.203125 15.921875 53.71875 
z
M 13.09375 20.65625 
Q 13.09375 16.890625 14.875 13.375 
Q 16.65625 9.859375 20.171875 7.921875 
Q 23.6875 6 27.734375 6 
Q 34.03125 6 38.125 10.046875 
Q 42.234375 14.109375 42.234375 20.359375 
Q 42.234375 26.703125 38.015625 30.859375 
Q 33.796875 35.015625 27.4375 35.015625 
Q 21.234375 35.015625 17.15625 30.90625 
Q 13.09375 26.8125 13.09375 20.65625 
z
" id="ArialMT-56"/>
       </defs>
       <use xlink:href="#ArialMT-56"/>
       <use x="55.615234" xlink:href="#ArialMT-48"/>
       <use x="111.230469" xlink:href="#ArialMT-48"/>
      </g>
     </g>
    </g>
    <g id="ytick_6">
     <g id="line2d_25">
      <path clip-path="url(#pad801dba27)" d="M 32.94375 115.521466 
L 1651.14375 115.521466 
" style="fill:none;stroke:#cccccc;stroke-linecap:round;stroke-width:0.8;"/>
     </g>
     <g id="line2d_26"/>
     <g id="text_13">
      <!-- 1000 -->
      <g style="fill:#262626;" transform="translate(7.2 119.100373)scale(0.1 -0.1)">
       <use xlink:href="#ArialMT-49"/>
       <use x="55.615234" xlink:href="#ArialMT-48"/>
       <use x="111.230469" xlink:href="#ArialMT-48"/>
       <use x="166.845703" xlink:href="#ArialMT-48"/>
      </g>
     </g>
    </g>
    <g id="ytick_7">
     <g id="line2d_27">
      <path clip-path="url(#pad801dba27)" d="M 32.94375 43.785396 
L 1651.14375 43.785396 
" style="fill:none;stroke:#cccccc;stroke-linecap:round;stroke-width:0.8;"/>
     </g>
     <g id="line2d_28"/>
     <g id="text_14">
      <!-- 1200 -->
      <g style="fill:#262626;" transform="translate(7.2 47.364302)scale(0.1 -0.1)">
       <use xlink:href="#ArialMT-49"/>
       <use x="55.615234" xlink:href="#ArialMT-50"/>
       <use x="111.230469" xlink:href="#ArialMT-48"/>
       <use x="166.845703" xlink:href="#ArialMT-48"/>
      </g>
     </g>
    </g>
   </g>
   <g id="line2d_29">
    <path clip-path="url(#pad801dba27)" d="M 106.498295 473.484457 
L 234.588005 469.538974 
L 238.469512 468.821613 
L 242.351018 467.745572 
L 246.232524 472.408416 
L 250.114031 473.843138 
L 253.995537 474.201818 
L 261.75855 473.484457 
L 269.521562 474.201818 
L 281.166081 474.201818 
L 285.047588 473.843138 
L 292.810601 473.843138 
L 296.692107 468.821613 
L 300.573613 461.289326 
L 304.45512 447.659472 
L 308.336626 406.052551 
L 312.218132 398.878944 
L 316.099639 399.954985 
L 319.981145 427.573372 
L 323.862651 383.455689 
L 327.744158 313.15434 
L 331.625664 321.045308 
L 335.50717 148.161378 
L 339.388677 260.787009 
L 347.15169 258.993607 
L 351.033196 289.122757 
L 354.914702 317.099824 
L 358.796209 288.405396 
L 362.677715 300.959208 
L 370.440728 385.249091 
L 374.322234 427.214692 
L 378.20374 387.401173 
L 382.085247 433.312258 
L 385.966753 434.746979 
L 389.848259 435.823021 
L 393.729766 446.942111 
L 397.611272 447.659472 
L 401.492779 444.072669 
L 405.374285 440.844545 
L 409.255791 419.682405 
L 413.137298 442.996628 
L 417.018804 421.475806 
L 420.90031 439.051144 
L 424.781817 451.246276 
L 428.663323 446.942111 
L 432.544829 438.333783 
L 436.426336 436.899062 
L 440.307842 441.561906 
L 444.189348 421.834487 
L 448.070855 436.540381 
L 451.952361 446.224751 
L 455.833868 429.366774 
L 459.715374 437.975103 
L 463.59688 442.279267 
L 467.478387 443.355308 
L 471.359893 440.485865 
L 475.241399 445.14871 
L 479.122906 457.343842 
L 483.004412 457.343842 
L 486.885918 455.19176 
L 490.767425 460.213284 
L 494.648931 464.517449 
L 498.530437 463.441408 
L 502.411944 462.724047 
L 506.29345 465.234809 
L 510.174957 464.517449 
L 514.056463 464.517449 
L 517.937969 466.31085 
L 521.819476 466.31085 
L 525.700982 467.745572 
L 529.582488 471.332375 
L 533.463995 469.538974 
L 537.345501 470.973695 
L 541.227007 470.256334 
L 545.108514 471.332375 
L 548.99002 472.049736 
L 552.871526 470.615015 
L 560.634539 470.615015 
L 564.516046 469.180293 
L 572.279058 472.767097 
L 576.160565 470.973695 
L 580.042071 472.049736 
L 583.923577 469.538974 
L 591.68659 473.125777 
L 595.568096 473.484457 
L 599.449603 472.767097 
L 603.331109 469.897654 
L 607.212615 467.745572 
L 611.094122 462.006686 
L 614.975628 461.648006 
L 618.857135 464.517449 
L 622.738641 464.876129 
L 626.620147 463.800088 
L 630.501654 464.517449 
L 634.38316 467.386891 
L 638.264666 469.538974 
L 642.146173 468.821613 
L 646.027679 469.538974 
L 649.909185 462.724047 
L 653.790692 469.897654 
L 657.672198 467.028211 
L 661.553704 465.95217 
L 665.435211 465.234809 
L 669.316717 468.462933 
L 673.198223 467.386891 
L 677.07973 459.854604 
L 680.961236 445.86607 
L 684.842743 453.398358 
L 688.724249 460.213284 
L 692.605755 464.517449 
L 696.487262 461.648006 
L 700.368768 460.571965 
L 704.250274 456.626481 
L 708.131781 460.213284 
L 712.013287 460.213284 
L 715.894793 455.90912 
L 719.7763 453.757038 
L 723.657806 460.571965 
L 727.539312 460.571965 
L 731.420819 456.267801 
L 735.302325 458.061202 
L 739.183832 454.115718 
L 743.065338 456.985161 
L 746.946844 462.006686 
L 750.828351 461.289326 
L 754.709857 462.006686 
L 758.591363 458.778563 
L 762.47287 453.039677 
L 766.354376 456.626481 
L 770.235882 450.170235 
L 774.117389 456.985161 
L 777.998895 468.104252 
L 781.880401 457.702522 
L 785.761908 455.90912 
L 789.643414 464.158768 
L 793.524921 460.213284 
L 797.406427 455.90912 
L 801.287933 451.963636 
L 805.16944 459.137243 
L 809.050946 458.778563 
L 812.932452 456.267801 
L 816.813959 454.833079 
L 820.695465 451.604956 
L 824.576971 451.604956 
L 828.458478 452.322317 
L 832.339984 457.702522 
L 836.22149 458.419883 
L 840.102997 451.604956 
L 843.984503 456.626481 
L 847.86601 458.061202 
L 851.747516 461.648006 
L 855.629022 458.419883 
L 859.510529 451.963636 
L 863.392035 462.365367 
L 867.273541 460.213284 
L 871.155048 452.322317 
L 875.036554 452.680997 
L 878.91806 460.213284 
L 882.799567 462.006686 
L 886.681073 464.876129 
L 890.562579 458.061202 
L 894.444086 451.604956 
L 898.325592 453.039677 
L 902.207099 459.495924 
L 906.088605 433.670938 
L 909.970111 453.398358 
L 913.851618 465.234809 
L 917.733124 464.158768 
L 921.61463 456.985161 
L 925.496137 467.745572 
L 929.377643 461.289326 
L 933.259149 463.082727 
L 937.140656 463.441408 
L 941.022162 465.95217 
L 944.903668 462.006686 
L 948.785175 462.365367 
L 952.666681 458.778563 
L 956.548188 467.028211 
L 960.429694 458.778563 
L 964.3112 461.289326 
L 968.192707 464.158768 
L 972.074213 462.006686 
L 975.955719 454.833079 
L 979.837226 454.115718 
L 983.718732 437.257742 
L 987.600238 414.66088 
L 991.481745 374.13 
L 995.363251 403.541789 
L 999.244757 385.966452 
L 1003.126264 367.673754 
L 1007.00777 370.901877 
L 1010.889277 357.989384 
L 1014.770783 355.119941 
L 1018.652289 331.805718 
L 1022.533796 378.792845 
L 1026.415302 373.77132 
L 1030.296808 359.424106 
L 1034.178315 316.023783 
L 1038.059821 341.131408 
L 1041.941327 358.348065 
L 1045.822834 366.956393 
L 1049.70434 385.249091 
L 1053.585846 389.911935 
L 1057.467353 378.434164 
L 1061.348859 404.25915 
L 1065.230365 403.183109 
L 1069.111872 413.943519 
L 1072.993378 414.302199 
L 1076.874885 431.518856 
L 1080.756391 425.42129 
L 1084.637897 418.247683 
L 1088.519404 418.606364 
L 1092.40091 411.074076 
L 1096.282416 425.42129 
L 1100.163923 430.801496 
L 1104.045429 435.10566 
L 1107.926935 436.181701 
L 1111.808442 433.670938 
L 1115.689948 419.323724 
L 1119.571454 429.008094 
L 1123.452961 434.746979 
L 1127.334467 444.790029 
L 1131.215974 449.094194 
L 1135.09748 452.322317 
L 1138.978986 434.746979 
L 1142.860493 429.366774 
L 1146.741999 433.312258 
L 1150.623505 452.322317 
L 1154.505012 440.127185 
L 1158.386518 456.267801 
L 1162.268024 460.571965 
L 1166.149531 433.670938 
L 1170.031037 446.583431 
L 1173.912543 451.604956 
L 1177.79405 447.300792 
L 1181.675556 451.246276 
L 1185.557063 448.018152 
L 1189.438569 447.300792 
L 1193.320075 433.312258 
L 1197.201582 449.452874 
L 1201.083088 454.833079 
L 1204.964594 448.376833 
L 1208.846101 453.398358 
L 1212.727607 439.409824 
L 1216.609113 437.616422 
L 1220.49062 444.072669 
L 1224.372126 438.692463 
L 1228.253632 457.343842 
L 1232.135139 448.018152 
L 1236.016645 441.561906 
L 1239.898152 446.942111 
L 1243.779658 453.398358 
L 1247.661164 441.561906 
L 1251.542671 431.518856 
L 1255.424177 418.606364 
L 1259.305683 446.583431 
L 1263.18719 452.322317 
L 1267.068696 431.518856 
L 1270.950202 442.637947 
L 1274.831709 437.257742 
L 1278.713215 429.366774 
L 1282.594721 433.312258 
L 1286.476228 429.008094 
L 1290.357734 429.725455 
L 1294.239241 439.409824 
L 1298.120747 447.300792 
L 1302.002253 431.877537 
L 1305.88376 429.366774 
L 1309.765266 422.193167 
L 1313.646772 442.279267 
L 1317.528279 422.910528 
L 1321.409785 429.008094 
L 1325.291291 438.333783 
L 1329.172798 421.834487 
L 1333.054304 422.910528 
L 1336.93581 405.693871 
L 1340.817317 400.672346 
L 1344.698823 399.596305 
L 1348.58033 394.2161 
L 1352.461836 392.064018 
L 1356.343342 361.934868 
L 1360.224849 351.174457 
L 1364.106355 344.00085 
L 1367.987861 335.751202 
L 1371.869368 355.837302 
L 1375.750874 376.999443 
L 1379.63238 349.022375 
L 1383.513887 337.185924 
L 1387.395393 265.091173 
L 1391.276899 270.112698 
L 1395.158406 299.165806 
L 1399.039912 313.15434 
L 1402.921419 338.979326 
L 1406.802925 312.436979 
L 1410.684431 290.916158 
L 1414.565938 280.514428 
L 1418.447444 248.591877 
L 1422.32895 265.091173 
L 1426.210457 247.874516 
L 1430.091963 253.613402 
L 1433.973469 264.373812 
L 1437.854976 228.147097 
L 1441.736482 235.320704 
L 1445.617988 227.429736 
L 1449.499495 133.455484 
L 1453.381001 104.761056 
L 1457.262507 216.669326 
L 1461.144014 158.563109 
L 1465.02552 87.544399 
L 1468.907027 111.575982 
L 1472.788533 93.283284 
L 1476.670039 97.946129 
L 1480.551546 80.729472 
L 1484.433052 142.063812 
L 1488.314558 163.225953 
L 1492.196065 83.240235 
L 1496.077571 120.901672 
L 1499.959077 29.438182 
L 1503.840584 68.17566 
L 1511.603596 184.746774 
L 1515.485103 99.739531 
L 1519.366609 97.587449 
L 1523.248116 127.357918 
L 1527.129622 105.478416 
L 1531.011128 180.08393 
L 1534.892635 238.548827 
L 1538.774141 108.347859 
L 1542.655647 218.104047 
L 1546.537154 173.627683 
L 1550.41866 162.867273 
L 1554.300166 232.451261 
L 1558.181673 244.287713 
L 1562.063179 236.038065 
L 1565.944685 312.436979 
L 1569.826192 281.94915 
L 1573.707698 275.492903 
L 1577.589205 286.253314 
L 1577.589205 286.253314 
" style="fill:none;stroke:#1f77b4;stroke-linecap:round;stroke-width:1.5;"/>
   </g>
   <g id="patch_3">
    <path d="M 32.94375 496.44 
L 32.94375 7.2 
" style="fill:none;stroke:#cccccc;stroke-linecap:square;stroke-linejoin:miter;"/>
   </g>
   <g id="patch_4">
    <path d="M 1651.14375 496.44 
L 1651.14375 7.2 
" style="fill:none;stroke:#cccccc;stroke-linecap:square;stroke-linejoin:miter;"/>
   </g>
   <g id="patch_5">
    <path d="M 32.94375 496.44 
L 1651.14375 496.44 
" style="fill:none;stroke:#cccccc;stroke-linecap:square;stroke-linejoin:miter;"/>
   </g>
   <g id="patch_6">
    <path d="M 32.94375 7.2 
L 1651.14375 7.2 
" style="fill:none;stroke:#cccccc;stroke-linecap:square;stroke-linejoin:miter;"/>
   </g>
  </g>
 </g>
 <defs>
  <clipPath id="pad801dba27">
   <rect height="489.24" width="1618.2" x="32.94375" y="7.2"/>
  </clipPath>
 </defs>
</svg>
